<svg width="187" height="48" viewBox="0 0 187 48" fill="none" xmlns="http://www.w3.org/2000/svg">
<path d="M20.0781 22.9844C22.9688 24.7031 25 27.9062 25 31.5C25 37.0469 20.4688 41.5 15 41.5H2.5C1.09375 41.5 0 40.4062 0 39V9C0 7.67188 1.09375 6.5 2.5 6.5H12.5C17.9688 6.5 22.5 11.0312 22.5 16.5C22.5 19 21.5625 21.2656 20.0781 22.9844ZM5 11.5781V21.5781H12.5C15.2344 21.5781 17.5 19.3125 17.5 16.5781C17.5 13.7656 15.2344 11.5781 12.5 11.5781H5ZM15 36.5C17.7344 36.5 20 34.3125 20 31.5C20 28.7656 17.7344 26.5 15 26.5H5V36.5H15ZM44.4125 28.2188L51.1313 37.5938C51.9125 38.6875 51.6 40.25 50.5063 41.1094C50.0375 41.4219 49.5688 41.5781 49.1 41.5781C48.3188 41.5781 47.5375 41.1875 46.9906 40.4844L38.8656 29H31.6V39C31.6 40.4062 30.4281 41.5 29.1 41.5C27.6938 41.5 26.6 40.4062 26.6 39V9C26.6 7.67188 27.6938 6.5 29.1 6.5H40.35C46.5219 6.5 51.6 11.5781 51.6 17.75C51.6 22.5156 48.6313 26.5781 44.4125 28.2188ZM31.6 11.5781V24H40.35C43.7875 24 46.6 21.2656 46.6 17.8281C46.6 14.3125 43.7875 11.5781 40.35 11.5781H31.6ZM78.2 39C78.2 40.4062 77.0281 41.5 75.7 41.5H55.7C54.2938 41.5 53.2 40.4062 53.2 39V9C53.2 7.67188 54.2938 6.57812 55.7 6.57812H75.7C77.0281 6.57812 78.2 7.67188 78.2 9.07812C78.2 10.4062 77.0281 11.5781 75.7 11.5781H58.2V21.5781H70.7C72.0281 21.5781 73.2 22.6719 73.2 24C73.2 25.4062 72.0281 26.5781 70.7 26.5781H58.2V36.5781H75.7C77.0281 36.5 78.2 37.6719 78.2 39ZM109.566 38.0625C110.113 39.3125 109.488 40.7969 108.238 41.3438C107.925 41.5 107.613 41.5781 107.3 41.5781C106.284 41.5781 105.347 40.9531 104.956 40.0156L102.456 34.0781H87.0656L84.5656 40.0156C84.0188 41.2656 82.6125 41.8906 81.2844 41.3438C80.0344 40.7969 79.4094 39.3906 79.9563 38.0625L92.4563 8.0625C92.8469 7.125 93.7844 6.57812 94.8 6.57812C95.7375 6.57812 96.675 7.125 97.0656 8.0625L109.566 38.0625ZM89.0969 29H100.425L94.8 15.5625L89.0969 29ZM135.931 37.5938C136.713 38.7656 136.4 40.3281 135.306 41.1094C134.838 41.4219 134.369 41.5781 133.9 41.5781C133.041 41.5781 132.259 41.1875 131.791 40.4844L121.4 25.4062L116.4 30.4844V39C116.4 40.4062 115.228 41.5 113.9 41.5C112.494 41.5 111.4 40.4062 111.4 39V9C111.4 7.67188 112.494 6.57812 113.9 6.57812C115.228 6.57812 116.4 7.67188 116.4 9.07812V23.375L132.103 7.28125C133.041 6.26562 134.603 6.26562 135.619 7.28125C136.556 8.21875 136.634 9.78125 135.619 10.7969L124.916 21.7344L135.931 37.5938Z" fill="white"/>
<path d="M143 12C144.2 13 145.4 14 148 14C153 14 153 10 158 10C160.6 10 161.8 11 163 12C164.2 13 165.4 14 168 14C173 14 173 10 178 10C180.6 10 181.8 11 183 12M143 36C144.2 37 145.4 38 148 38C153 38 153 34 158 34C160.6 34 161.8 35 163 36C164.2 37 165.4 38 168 38C173 38 173 34 178 34C180.6 34 181.8 35 183 36M143 24C144.2 25 145.4 26 148 26C153 26 153 22 158 22C160.6 22 161.8 23 163 24C164.2 25 165.4 26 168 26C173 26 173 22 178 22C180.6 22 181.8 23 183 24" stroke="white" stroke-width="5" stroke-linecap="round" stroke-linejoin="round"/>
</svg>
