<svg width="216" height="131" viewBox="0 0 216 131" fill="none" xmlns="http://www.w3.org/2000/svg">
<path d="M105.516 12.6582C105.819 15.7257 105.762 16.4997 107.239 19.0835C107.5 20.5 108 21.4232 108 23C108 24.5889 108.322 26.1534 108.263 27.702C108.125 31.2754 113.695 31.8878 116.327 31.0869C119.688 30.0638 122.952 28.4051 125.926 26.4932C127.974 25.1766 129.119 22.9288 130.961 21.2737C132.792 19.6285 135.212 17.6107 137.503 16.6941C138.637 16.2407 139.732 15.5488 141 15.5C142.712 15.4342 144.521 15.1124 146 16C147.015 16.6092 148.458 17.0525 149.646 17.4177L149.791 17.4621C151.965 18.1312 154.203 18.4909 156.262 19.5812C157.931 20.4646 159.79 21.5703 161.354 22.6532C163.111 23.8697 164.938 25.6968 166.467 27.2256L166.531 27.2896C168.68 29.4387 171.506 30.8033 173.414 33.1349C175.568 35.7672 178.239 38.0854 179.629 41.213C179.743 41.4698 180.214 42.7178 179.885 42.9481C179.555 43.1795 179.174 42.1925 179.174 43.005C179.174 43.4623 179.033 43.563 178.932 43.9152C178.573 45.1709 178.268 43.6097 177.581 44.2281C176.849 44.887 177.277 45.7871 176.856 46.4183C176.485 46.9743 176.284 45.2036 175.903 44.6548C175.638 44.2736 175.508 43.8037 175.206 44.4415C174.49 45.953 173.864 44.797 172.575 44.797C171.924 44.797 171.75 47.0369 171.508 46.4325C171.106 45.426 171.19 45.3705 170.214 44.8539C169.204 44.3189 168.43 43.7543 167.284 44.4415C165.864 45.2937 165.82 45.9693 164.383 44.5979C162.534 42.8328 162.622 44.6159 161.126 45.2806C160.876 45.3916 159.128 44.0727 158.495 44.029C157.462 43.9578 156.59 43.81 155.565 44.0859C154.746 44.3065 154.01 43.8183 153.062 44.029C151.988 44.2677 151.103 43.5133 149.791 43.8299C149.366 43.9326 149.123 43.7923 148.71 43.645C148.154 43.4463 147.638 43.773 147.061 43.773C145.375 43.773 143.753 45.2742 142.225 45.9063C141.645 46.1464 140.987 46.0813 140.376 46.2192C139.547 46.4064 138.896 46.9352 138.086 47.1152C137.158 47.3216 136.341 47.8843 135.512 48.3241C134.533 48.8438 133.763 49.8491 132.71 50.173C131.131 50.6591 129.575 52.6388 127.974 52.7329C126.499 52.8197 124.679 53.2449 123.111 53.2449C122.164 53.2449 121.329 53.7569 120.423 53.7569C120.04 53.7569 119.652 53.7781 119.271 53.7569C118.924 53.7376 119 53.1921 118.702 52.9889C117.647 52.2721 115.525 51.9537 115.431 53.7569C115.409 54.159 115.629 55.1733 115.374 55.492C114.873 56.1178 114.729 56.5729 115.829 56.5729C117.711 56.5729 119.216 56.0609 121.048 56.0609H123.509C124.616 56.0609 125.515 55.886 123.878 56.26C122.441 56.5885 120.744 56.4953 119.271 56.5729C118.518 56.6125 117.574 57.0849 118.872 57.0849H121.959C122.912 57.0849 124.568 57.1787 125.471 57.3978C128.109 58.0372 124.851 57.8529 123.751 57.8529C123.011 57.8529 122.34 58.1089 121.575 58.1089C121.223 58.1089 118.827 58.5765 119.953 58.8769C122.654 59.5971 125.725 59.6221 128.486 59.844C128.859 59.874 131.32 60.2334 131.603 60.5865C131.846 60.8904 131.056 60.6486 130.839 60.5865C130.167 60.3946 129.233 60.6779 128.547 60.5865C126.67 60.3362 124.714 60.2045 122.817 60.2045C121.898 60.2045 120.409 59.9341 119.497 60.1C118.595 60.264 118.186 59.3382 117.223 59.3889C115.554 59.4767 121.146 61.4001 121.29 61.5791C121.933 62.3837 117.283 61.124 116.6 61.124C116.295 61.124 115.559 61.1798 115.157 61.381C115.168 61.4389 115.108 61.5174 114.919 61.636C114.894 61.651 114.873 61.6652 114.854 61.6783C114.647 61.8213 114.728 61.8469 114.854 61.6783C114.875 61.6506 114.897 61.6176 114.919 61.5791C114.963 61.5011 115.048 61.4357 115.157 61.381C115.135 61.2646 114.827 61.2317 114.719 61.124C114.688 61.0925 114.658 61.0625 114.628 61.0337C113.731 61.7093 112.358 62.3347 111.96 63.2431C111.401 64.5209 110.991 65.765 110.311 66.955C109.428 68.4991 110.311 69.4876 110.311 71.0368C110.311 72.54 111.847 72.8429 112.814 71.8759C113.173 71.5162 113.674 71.6635 114.207 71.6635C115.03 71.6635 114.755 72.5551 114.719 73.1558C114.656 74.2293 114.919 74.7192 114.207 73.3265C113.732 73.2736 113.737 74.2367 113.226 74.2367C111.412 74.2367 109.611 73.4687 107.879 73.4687C106.958 73.4687 104.782 75.1973 105.646 73.4687C106.262 72.2365 107.062 71.4598 108.007 70.3968C108.837 69.4622 109.063 67.7969 108.576 66.699C108.096 65.6203 108.579 63.1588 107.182 62.66C105.73 62.1416 104.643 62.1687 103.114 62.404C102.741 62.4613 101.287 62.2669 101.095 62.6031C100.596 63.4756 100.285 63.6277 100.327 64.7079C100.353 65.3815 100.846 65.98 100.455 66.6848C100.159 67.2173 100.407 67.9101 100.27 68.491C100.125 69.1045 99.8148 69.714 99.6156 70.3114C99.5221 70.5919 98.9049 72.0264 99.1889 72.1887C99.9721 72.6362 100.984 72.4447 101.863 72.4447C103.061 72.4447 103.399 72.3337 103.399 73.611C103.399 74.2552 104.101 75.2461 104.101 75.9007C104.101 76.6206 102.274 74.6646 102.119 74.4358C101.221 73.1157 97.8504 74.161 96.4868 74.2367C95.6917 74.2809 95.2471 75.0108 94.5668 75.3887C93.8654 75.7784 92.4949 75.5167 91.7366 75.5167C90.2836 75.5167 89.1894 74.2367 87.8397 74.2367C86.358 74.2367 84.2077 73.523 83.857 75.1011C83.6105 76.2105 83.4451 76.5595 83.4451 75.863C83.4451 75.1792 84.1989 74.2887 84.1989 73.5967C84.1989 72.3414 87.4016 73.1545 88.2379 73.4118C89.7679 73.8826 92.0693 73.4992 93.5286 73.1558C95.6243 72.6627 95.9294 71.3145 97.141 69.7568C98.0648 68.569 98.5347 67.4478 98.5347 65.9168C98.5347 64.2083 97.0692 63.8231 95.733 62.9728C94.676 62.3002 95.2068 59.1916 95.2068 57.9809C95.2068 57.2125 95.4628 56.5952 95.4628 55.8191C95.4628 55.0961 95.5017 54.4965 95.4628 53.7569C95.3768 52.123 93.1827 51.8591 91.8219 52.2778C91.1624 52.4807 90.4767 52.3715 89.973 52.8752C89.5504 53.2978 89.6386 54.2551 89.3757 54.7809C88.5501 56.432 87.993 57.5244 86.3037 56.004C85.9923 55.7237 85.3975 54.6387 84.9669 54.6387C84.5869 54.6387 84.5957 55.1978 84.3126 55.2787C83.6666 55.4633 83.1847 54.2708 82.8051 53.9418C82.0176 53.2593 81.6575 54.7146 80.8709 53.5578C80.6796 53.2765 80.4998 52.95 80.3731 52.6334C80.2365 52.2917 79.6261 52.4632 79.3491 52.2209C78.2601 51.2681 79.0144 52.2209 77.7989 52.2209C76.4626 52.2209 76.9691 51.9594 76.1207 51.3534C75.8273 51.1438 75.7508 51.8509 75.5518 51.4529C75.2066 50.7624 75.1693 49.9611 74.5847 49.3765C73.9606 48.7524 72.7152 48.0965 72.0248 48.0965C71.6827 48.0965 70.6107 46.0627 70.375 46.4752C69.7372 47.5913 69.1179 47.3606 68.3839 46.333C68.1994 46.0747 67.9336 46.7963 67.815 46.9445C67.7315 47.049 66.4358 45.6834 66.2648 45.565C66.1225 45.4665 64.7954 44.3785 64.743 44.797C64.647 45.5655 64.2023 45.1666 63.5768 44.8539C62.9021 44.5165 62.3731 43.9532 61.7991 44.6548C61.6666 44.8167 61.4666 45.2183 61.3582 45.1099C60.4196 44.1713 60.1694 43.842 59.1111 44.7828C57.5737 46.1494 58.2759 43.9941 56.8925 44.541C56.396 44.7373 52.6162 45.8069 54.3894 44.5552C54.7144 44.3258 55.1727 44.0071 55.5271 43.8299C55.6164 43.7853 56.5231 43.7238 56.48 43.6592C56.3039 43.3951 52.7795 44.4323 52.3129 44.4841C52.0872 44.5092 50.2921 44.5229 50.4356 44.4272C51.1143 43.9748 51.5901 43.8934 50.393 44.1997C48.3474 44.723 46.2954 45.3973 44.2206 45.7925C43.4293 45.9433 45.2827 45.0845 45.5999 44.8541C43.9652 45.0439 42.3015 45.4626 40.6651 45.6788C40.4262 45.7103 38.6435 46.1663 39.0011 45.4512C39.0625 45.3284 39.142 45.2122 39.2355 45.1042C38.2392 45.2361 37.2124 45.2821 36.2989 45.309C34.3268 45.367 36.3171 44.7708 37.2375 44.285C37.9538 43.907 39.0232 43.5542 37.5789 43.9152C36.2543 44.2464 34.9894 44.8383 33.6251 44.797C33.3246 44.7879 33.1646 44.592 32.8713 44.5268C32.6047 44.4675 31.5473 44.2573 31.7478 44.157C32.0526 44.0046 33.3868 43.261 33.2553 43.261C33.0974 43.261 30.3544 43.5849 31.0794 43.005C32.0293 42.245 30.2506 43.0309 30.1834 42.493C30.108 41.89 29.7398 41.685 30.3256 41.0993C31.18 40.2449 32.4585 39.0733 33.5113 38.4539C34.6286 37.7967 35.2791 36.3254 36.1282 35.382C37.8498 33.4691 39.1403 31.1071 41.4473 29.75C42.3306 29.2304 42.9049 28.2258 43.8081 27.6452C44.8321 26.9869 45.6924 26.2407 46.6952 25.4834C48.8709 23.8405 51.431 22.8544 53.7352 21.3732C55.0342 20.5381 56.2182 19.6766 57.5751 18.9981C59.0226 18.2744 60.8761 18.2741 62.4391 17.8604C63.8349 17.4909 65.1856 16.9354 66.5493 16.5093C68.815 15.8012 70.5212 15.7327 72.7785 16.1253C75.4826 16.5955 78.2303 19.0266 78.8087 21.6292C79.5333 24.8897 84.8147 25.4558 87.2708 26.8203C90.1312 28.4094 93.2959 31.0592 96.7428 29.4371C98.5532 28.5852 99.7578 23.1983 99.7578 21.2737C99.9999 19.0835 98.4999 15.7413 98.1507 14.8453C97.7667 13.86 97.7667 11.8783 97.7667 11.0053C97.7667 9.69202 98.2081 8.43754 98.2787 7.16535C98.4523 4.04044 100.534 1.98851 103.5 1C105 0.5 105.397 0 107 0C108.627 0 112.733 0.769797 113.951 1.98851C114.831 2.86823 115.002 4.17111 116.199 4.80448C117.952 5.73259 119.86 6.15156 121.841 6.58626L121.887 6.59646C123.083 6.85897 124.633 7.80815 124.917 9.08533C125.079 9.81596 125.46 10.1951 125.414 11.0053C125.392 11.4159 125.393 12.1549 125.399 12.631C125.409 12.6995 125.414 12.7694 125.414 12.8408C125.414 13.2764 125.405 13.061 125.399 12.631C125.076 10.4609 119.782 9.72532 118.119 9.72532C116.796 9.72532 115.274 9.08533 113.951 9.08533C112.828 9.08533 111.063 8.61264 110 9.08533C108.905 9.57186 106.34 9.80803 106 11C105.707 12.0239 105.571 12.488 105.516 12.6582Z" fill="white"/>
<path d="M26.7919 99.4239C25.9599 98.8479 24.9999 98.3679 23.9119 97.9839C22.8239 97.5679 21.7039 97.2639 20.5519 97.0719C19.3999 96.8479 18.2799 96.7359 17.1919 96.7359C14.7919 96.7359 12.5679 97.1519 10.5199 97.9839C8.47194 98.8159 6.69594 99.9999 5.19194 101.536C3.68794 103.04 2.51994 104.848 1.68794 106.96C0.855941 109.04 0.439941 111.328 0.439941 113.824C0.439941 116.288 0.823941 118.544 1.59194 120.592C2.35994 122.64 3.46394 124.416 4.90394 125.92C6.37594 127.424 8.15194 128.592 10.2319 129.424C12.3439 130.224 14.7279 130.624 17.3839 130.624C18.5039 130.624 19.6399 130.528 20.7919 130.336C21.9759 130.144 23.1119 129.872 24.1999 129.52C25.3199 129.168 26.2959 128.736 27.1279 128.224L23.8159 121.696C22.9839 122.208 22.0399 122.64 20.9839 122.992C19.9279 123.312 18.8079 123.472 17.6239 123.472C16.5999 123.472 15.5919 123.264 14.5999 122.848C13.6399 122.4 12.7759 121.76 12.0079 120.928C11.2399 120.096 10.6159 119.088 10.1359 117.904C9.68794 116.688 9.46394 115.312 9.46394 113.776C9.46394 111.792 9.84794 110.064 10.6159 108.592C11.3839 107.088 12.3599 105.936 13.5439 105.136C14.7599 104.304 16.0079 103.888 17.2879 103.888C18.0239 103.888 18.6959 103.936 19.3039 104.032C19.9119 104.096 20.5839 104.224 21.3199 104.416C22.0879 104.608 23.0479 104.912 24.1999 105.328L26.7919 99.4239Z" fill="white"/>
<path d="M45.8817 130.672C42.4257 130.672 39.4337 129.92 36.9057 128.416C34.3777 126.912 32.4257 124.88 31.0497 122.32C29.7057 119.76 29.0337 116.928 29.0337 113.824C29.0337 110.464 29.7537 107.504 31.1937 104.944C32.6337 102.352 34.6177 100.336 37.1457 98.8959C39.7057 97.4239 42.6177 96.6879 45.8817 96.6879C49.4337 96.6879 52.4577 97.4399 54.9537 98.9439C57.4817 100.448 59.4177 102.464 60.7617 104.992C62.1057 107.52 62.7777 110.352 62.7777 113.488C62.7777 116.848 62.0577 119.824 60.6177 122.416C59.2097 125.008 57.2257 127.04 54.6657 128.512C52.1377 129.952 49.2097 130.672 45.8817 130.672ZM45.8337 123.376C47.3377 123.376 48.6817 123.008 49.8657 122.272C51.0817 121.536 52.0417 120.432 52.7457 118.96C53.4497 117.488 53.8017 115.664 53.8017 113.488C53.8017 111.664 53.4817 110.048 52.8417 108.64C52.2337 107.2 51.3377 106.064 50.1537 105.232C49.0017 104.4 47.6097 103.984 45.9777 103.984C44.5377 103.984 43.2097 104.4 41.9937 105.232C40.7777 106.032 39.8017 107.168 39.0657 108.64C38.3617 110.08 38.0097 111.792 38.0097 113.776C38.0097 115.6 38.3137 117.248 38.9217 118.72C39.5617 120.16 40.4577 121.296 41.6097 122.128C42.7937 122.96 44.2017 123.376 45.8337 123.376Z" fill="white"/>
<path d="M84.4111 116.704H78.0271L81.1471 107.824L84.4111 116.704ZM76.9231 97.3599L64.6831 130H73.3711L75.6271 123.568H86.9071L89.2591 130.48L97.8511 129.616L85.6591 97.3599H76.9231Z" fill="white"/>
<path d="M99.9121 127.984C100.552 128.368 101.304 128.72 102.168 129.04C103.064 129.36 103.992 129.648 104.952 129.904C105.944 130.128 106.92 130.304 107.88 130.432C108.872 130.56 109.784 130.624 110.616 130.624C113.304 130.624 115.624 130.208 117.576 129.376C119.528 128.544 121.016 127.408 122.04 125.968C123.096 124.496 123.624 122.848 123.624 121.024C123.624 119.68 123.32 118.48 122.712 117.424C122.136 116.336 121.368 115.344 120.408 114.448C119.448 113.552 118.376 112.736 117.192 112C116.04 111.264 114.888 110.56 113.736 109.888C112.872 109.376 112.056 108.944 111.288 108.592C110.552 108.208 109.944 107.824 109.464 107.44C109.016 107.056 108.792 106.64 108.792 106.192C108.792 105.584 109.08 105.056 109.656 104.608C110.232 104.128 111.016 103.888 112.008 103.888C112.744 103.888 113.416 103.936 114.024 104.032C114.632 104.096 115.304 104.224 116.04 104.416C116.808 104.608 117.768 104.912 118.92 105.328L121.512 99.4239C120.232 98.5599 118.712 97.9039 116.952 97.4559C115.224 96.9759 113.544 96.7359 111.912 96.7359C109.448 96.7359 107.304 97.1519 105.48 97.9839C103.656 98.7839 102.248 99.8879 101.256 101.296C100.296 102.704 99.8001 104.304 99.7681 106.096C99.7681 107.472 100.072 108.72 100.68 109.84C101.288 110.928 102.088 111.904 103.08 112.768C104.072 113.632 105.128 114.416 106.248 115.12C107.4 115.824 108.504 116.496 109.56 117.136C110.392 117.616 111.192 118.08 111.96 118.528C112.728 118.944 113.352 119.36 113.832 119.776C114.344 120.16 114.6 120.544 114.6 120.928C114.6 121.312 114.44 121.712 114.12 122.128C113.8 122.512 113.32 122.832 112.68 123.088C112.072 123.344 111.304 123.472 110.376 123.472C109.608 123.472 108.728 123.376 107.736 123.184C106.776 122.96 105.848 122.688 104.952 122.368C104.088 122.048 103.368 121.728 102.792 121.408L99.9121 127.984Z" fill="white"/>
<path d="M152.994 97.3599H125.058V104.224H134.658V130H143.394V104.224H153.81L152.994 97.3599Z" fill="white"/>
<path d="M174.505 116.704H168.121L171.241 107.824L174.505 116.704ZM167.017 97.3599L154.777 130H163.465L165.721 123.568H177.001L179.353 130.48L187.945 129.616L175.753 97.3599H167.017Z" fill="white"/>
<path d="M214.87 123.136H200.998V97.3599H192.262V130H215.686L214.87 123.136Z" fill="white"/>
</svg>
