<svg width="320" height="52" viewBox="0 0 320 52" fill="none" xmlns="http://www.w3.org/2000/svg">
<path d="M20.625 4.875C21.8333 4.95833 22.9167 5.58333 23.875 6.75C24.0417 7 24.2083 7.25 24.375 7.5C24.5417 7.70833 24.6667 7.95833 24.75 8.25C25 8.875 25.0833 9.77083 25 10.9375C24.9167 12.1042 24.9792 13.0625 25.1875 13.8125C25.3958 14.5208 25.6042 15.2083 25.8125 15.875C26.1875 17.0417 25.9583 18.6042 25.125 20.5625C24.5 22.3542 23.7292 23.4167 22.8125 23.75L21.6875 24.125C20.6042 24.5 19.6667 24.6458 18.875 24.5625C18.125 24.4375 17.6042 24.2083 17.3125 23.875C16.4792 22.7917 16.2708 21.5417 16.6875 20.125C16.7708 19.8333 16.7708 19.375 16.6875 18.75C16.6042 18.125 16.25 17.7292 15.625 17.5625C15.2917 17.4792 15.0625 17.3333 14.9375 17.125C14.8542 16.9167 14.7708 16.75 14.6875 16.625C14.6458 16.4583 14.5833 16.3542 14.5 16.3125C14.4583 16.2292 14.2708 16.3125 13.9375 16.5625C13.6042 16.8125 13.4167 16.9583 13.375 17C13.3333 17 13.1875 16.9583 12.9375 16.875C12.7292 16.7917 12.5208 16.8125 12.3125 16.9375C12.1042 17.0625 11.8958 17.2917 11.6875 17.625C10.9375 18.9167 10.7917 21.0208 11.25 23.9375C11.4167 24.8125 11.5833 25.625 11.75 26.375C12.0833 28.25 12.2292 29.5 12.1875 30.125C12.1875 30.75 12.0625 31.4167 11.8125 32.125C11.6042 32.7917 11.4167 33.4583 11.25 34.125C10.75 35.8333 10.8125 37.2917 11.4375 38.5C12.1875 40 12.6667 40.875 12.875 41.125C13.25 41.5 13.7083 41.6667 14.25 41.625C14.7917 41.5417 15.2083 41.2708 15.5 40.8125C15.7917 40.3125 16.0625 39.7917 16.3125 39.25C16.5625 38.6667 16.8333 38.125 17.125 37.625C17.4167 37.125 17.75 36.8333 18.125 36.75C18.5417 36.6667 19.0625 36.6667 19.6875 36.75C20.3125 36.7917 20.7292 36.8125 20.9375 36.8125C21.1875 36.8125 21.4792 36.9583 21.8125 37.25C22.1458 37.5 22.3125 38.1042 22.3125 39.0625C22.3542 39.9792 22.3958 40.7292 22.4375 41.3125C22.4792 41.8542 22.3333 42.3542 22 42.8125C21.6667 43.2292 21.4375 43.625 21.3125 44C21.2292 44.3333 21.1667 44.6667 21.125 45C21.0833 45.875 20.9167 46.5208 20.625 46.9375C20.375 47.3542 20.125 47.7083 19.875 48C19.6667 48.25 19.0625 48.375 18.0625 48.375C17.1042 48.375 16.2292 48.8333 15.4375 49.75C14.6458 50.6667 13.8958 51.0625 13.1875 50.9375C12.4792 50.8542 11.9792 50.4375 11.6875 49.6875C11.3958 49.0208 10.75 48.6667 9.75 48.625C9.45833 48.5833 9.1875 48.5208 8.9375 48.4375C8.6875 48.3125 8.39583 48.2292 8.0625 48.1875C7.72917 48.1042 7.39583 47.9583 7.0625 47.75C6.22917 47.2917 5.54167 46.5625 5 45.5625C4.66667 44.9375 4.33333 44.4167 4 44C3.70833 43.5833 3.45833 43.1875 3.25 42.8125C2.70833 41.9792 2.5 41.1875 2.625 40.4375C2.875 38.4375 2.60417 37.125 1.8125 36.5C1.35417 36.2083 1.125 35.9792 1.125 35.8125C1.125 35.6458 1.04167 35.2917 0.875 34.75C0.625 34 0.625 33.125 0.875 32.125C1.16667 31.125 1.27083 30.3125 1.1875 29.6875C1.10417 29.0208 1 28.3333 0.875 27.625C0.625 25.7917 0.604167 24.5833 0.8125 24C1.02083 23.4167 1.0625 22.5833 0.9375 21.5C0.854167 20.4167 0.8125 19.5417 0.8125 18.875C0.8125 18.1667 0.75 17.25 0.625 16.125C0.541667 15 0.541667 13.7917 0.625 12.5C0.916667 9.25 2.02083 7.02083 3.9375 5.8125C6.8125 4.10417 8.64583 3.29167 9.4375 3.375C9.6875 3.375 9.97917 3.41667 10.3125 3.5C10.6875 3.54167 11.0417 3.52083 11.375 3.4375C11.7083 3.35417 12 3.22917 12.25 3.0625C12.5 2.89583 12.75 2.70833 13 2.5C14 1.58333 14.8958 1.47917 15.6875 2.1875C16.4375 3.0625 17.0208 3.64583 17.4375 3.9375C18.1458 4.47917 19.2083 4.79167 20.625 4.875ZM44.8125 4.0625L46.8125 3.9375C48.2292 3.9375 49.2292 4.16667 49.8125 4.625C50.4375 5.08333 50.8958 5.5 51.1875 5.875C51.5208 6.25 51.8125 6.64583 52.0625 7.0625C52.3125 7.4375 52.6458 7.83333 53.0625 8.25C53.5208 8.66667 53.75 9.16667 53.75 9.75C53.75 10.2917 53.8958 10.7292 54.1875 11.0625C54.5208 11.3958 54.6875 11.9375 54.6875 12.6875C54.6875 13.4375 54.6667 14.1667 54.625 14.875C54.625 15.5417 54.5625 16.1042 54.4375 16.5625C54.3125 16.9792 54.25 17.4167 54.25 17.875C54.25 18.2917 54.3333 18.6875 54.5 19.0625C54.7083 19.3958 54.7292 20.25 54.5625 21.625C54.4375 22.9583 54.2083 24.3125 53.875 25.6875C53.5833 27.0625 53.1875 28.25 52.6875 29.25C51.6875 31.125 50.0625 32.6042 47.8125 33.6875C48.0208 34.1875 48.25 34.75 48.5 35.375C48.7917 35.9583 49.0625 36.5625 49.3125 37.1875C49.8542 38.7292 50.125 39.8542 50.125 40.5625C50.125 41.2292 50.1458 41.7292 50.1875 42.0625C50.2708 42.3542 50.3542 42.5833 50.4375 42.75C50.5208 42.9167 50.625 43.0417 50.75 43.125C50.9167 43.2083 51.1458 43.375 51.4375 43.625C51.7292 43.8333 51.9583 44.2083 52.125 44.75C52.2917 45.2917 52.375 45.8542 52.375 46.4375C52.375 47.7708 52.2083 48.6042 51.875 48.9375C51.5833 49.2292 51.25 49.4167 50.875 49.5C50.5417 49.625 50.1875 49.7083 49.8125 49.75C48.8542 49.875 48.25 49.75 48 49.375C47.6667 49.0417 47.4792 48.7083 47.4375 48.375C47.4375 48 47.375 47.6875 47.25 47.4375C47.125 47.1458 46.9375 46.9792 46.6875 46.9375C46.4375 46.8542 46.25 46.5833 46.125 46.125C46.0417 45.6667 45.8958 45.375 45.6875 45.25C45.5208 45.0833 45.1458 45.0417 44.5625 45.125C43.5208 45.3333 42.75 44.7083 42.25 43.25C42.125 42.9167 42 42.4792 41.875 41.9375C41.75 41.3958 41.6042 40.875 41.4375 40.375C41.1042 39.1667 40.7083 38.5208 40.25 38.4375C39.8333 38.3125 39.5208 38.3542 39.3125 38.5625C39.1042 38.7708 38.9375 39.0625 38.8125 39.4375C38.7292 39.7708 38.6875 40.1667 38.6875 40.625C38.6875 41.0417 38.7292 41.5 38.8125 42C38.9375 42.5 38.9583 42.9167 38.875 43.25C38.7917 43.5833 38.6667 43.8542 38.5 44.0625C38.375 44.2708 38.2292 44.4583 38.0625 44.625C37.7292 44.8333 37.5208 45.25 37.4375 45.875C37.3958 46.5 37.3125 47.0417 37.1875 47.5C36.9375 48.625 36.6042 49.3333 36.1875 49.625C35.7708 49.9167 35.3542 50.0833 34.9375 50.125C34.5208 50.2083 34.1042 50.2083 33.6875 50.125C32.6458 49.9167 32 49.5417 31.75 49C31.5 48.5 31.3542 48.125 31.3125 47.875C31.2708 47.5833 31.25 47.3125 31.25 47.0625C31.2917 46.8125 31.3333 46.5417 31.375 46.25C31.4167 45.9583 31.4167 45.625 31.375 45.25C31.375 44.8333 31.2917 44.2917 31.125 43.625C30.9583 42.9583 30.8542 42.1667 30.8125 41.25L30.75 39.625C30.75 39.4583 30.8958 39.1875 31.1875 38.8125C31.4792 38.3958 31.5625 37.9375 31.4375 37.4375C31.3542 36.8958 31.125 36.5625 30.75 36.4375C30.375 36.2708 30.1875 36.0833 30.1875 35.875C30.1875 35.6667 30.2292 35.1458 30.3125 34.3125C30.3958 33.4792 30.3542 32.4375 30.1875 31.1875C30.0625 29.9375 29.9792 28.8333 29.9375 27.875C29.7708 25.7917 29.3958 24.625 28.8125 24.375C28.2708 24.0833 27.9583 23.75 27.875 23.375C27.7917 22.9583 27.7917 22.5 27.875 22C27.9583 21.5 28.0417 20.875 28.125 20.125C28.25 19.375 28.375 18.625 28.5 17.875C28.625 17.0833 28.7292 16.3542 28.8125 15.6875C28.9375 15.0208 29.0208 14.5625 29.0625 14.3125C29.1042 14.0625 29.1042 13.8333 29.0625 13.625C29.0625 13.375 29.0625 13.1458 29.0625 12.9375C28.9792 12.2708 28.9792 11.6875 29.0625 11.1875C29.2292 10.2292 29.2708 9.5625 29.1875 9.1875C29.1042 8.77083 29.1667 8.16667 29.375 7.375C29.625 6.54167 29.8333 5.95833 30 5.625C30.1667 5.29167 30.4792 5.04167 30.9375 4.875C31.3958 4.70833 31.8333 4.47917 32.25 4.1875C32.7083 3.85417 33.125 3.54167 33.5 3.25C33.875 2.91667 34.2083 2.625 34.5 2.375C34.7917 2.08333 35.1458 1.875 35.5625 1.75C36.7708 1.5 37.6458 1.47917 38.1875 1.6875C38.7708 1.85417 39.1875 2.04167 39.4375 2.25C39.6875 2.45833 39.9792 2.66667 40.3125 2.875C40.6875 3.08333 41.0625 3.25 41.4375 3.375C41.8542 3.45833 42.2292 3.5 42.5625 3.5C43.4375 3.58333 43.9583 3.70833 44.125 3.875C44.3333 4 44.5625 4.0625 44.8125 4.0625ZM39.625 21.5L40 27.1875C40 27.5625 39.9792 27.9375 39.9375 28.3125C39.8958 28.6458 39.8542 28.9583 39.8125 29.25C39.7708 29.875 40 30.25 40.5 30.375C40.9167 30.4583 41.25 30.3542 41.5 30.0625C41.75 29.7292 41.9792 29.2917 42.1875 28.75C42.6875 27.7083 42.8542 27.0417 42.6875 26.75C42.3542 26.3333 42.25 25.9792 42.375 25.6875C42.5417 25.3542 42.8542 24.7292 43.3125 23.8125C43.8125 22.8958 44.1667 22.1042 44.375 21.4375C44.625 20.7708 44.6875 20.0625 44.5625 19.3125C44.4375 18.5208 44.375 17.9792 44.375 17.6875V17C44.375 16.6667 44.2083 16.375 43.875 16.125C43.5833 15.8333 43.375 15.6875 43.25 15.6875C43.125 15.6458 43.0208 15.625 42.9375 15.625C42.5625 15.7083 42.2083 15.6875 41.875 15.5625C41.5417 15.3958 41.2292 15.3333 40.9375 15.375C40.6458 15.375 40.3125 15.5625 39.9375 15.9375C39.5625 16.3125 39.3542 16.7083 39.3125 17.125C39.2708 17.5 39.2708 17.9375 39.3125 18.4375C39.5208 19.9375 39.625 20.9583 39.625 21.5ZM63.4375 5.875C63.8958 5.45833 64.2917 5.02083 64.625 4.5625C64.9583 4.0625 65.3958 3.60417 65.9375 3.1875C67.3958 1.97917 68.8542 1.625 70.3125 2.125C72.1042 2.79167 73.75 3.20833 75.25 3.375C76.75 3.54167 77.8333 3.91667 78.5 4.5C79.2083 5.08333 79.8125 5.70833 80.3125 6.375C81.5208 7.95833 82.25 9.6875 82.5 11.5625C82.5417 12.2708 82.6667 12.7708 82.875 13.0625C83.4167 13.9792 83.5833 15.2083 83.375 16.75C83.2083 18.2917 83.1458 19.375 83.1875 20C83.2708 20.5833 83.375 21.0208 83.5 21.3125C83.6667 21.6042 83.8125 21.8958 83.9375 22.1875C84.2708 22.9792 84.4375 23.7708 84.4375 24.5625C84.4375 25.5625 84.1042 26.5625 83.4375 27.5625C83.1458 27.9375 83.0417 28.6667 83.125 29.75C83.2083 30.8333 83.2708 31.9167 83.3125 33C83.3542 35.7083 83.2083 37.3958 82.875 38.0625C82.5417 38.6875 82.2917 39.0625 82.125 39.1875C82 39.3125 81.875 39.4167 81.75 39.5C81.125 39.7917 80.5625 40.6667 80.0625 42.125C79.6042 43.5417 78.9792 44.7083 78.1875 45.625C77.3958 46.5 76.5625 47.2292 75.6875 47.8125C74.8542 48.3542 74.1875 48.7708 73.6875 49.0625C73.2292 49.3958 72.8958 49.7083 72.6875 50C72.4792 50.2917 72.2708 50.5833 72.0625 50.875C71.5208 51.5417 70.8333 51.875 70 51.875C68.5833 51.875 67.5417 51.5417 66.875 50.875C66.5833 50.5 66.2708 49.9583 65.9375 49.25C65.3125 48.125 64.4792 47.2083 63.4375 46.5C62.2708 45.7083 61.5625 44.5208 61.3125 42.9375C61.1875 42.3958 61.1458 41.8542 61.1875 41.3125C61.2708 40.7708 61.25 40.0833 61.125 39.25C61.0417 38.4167 60.875 37.6667 60.625 37C60.375 36.3333 60.2292 35.7083 60.1875 35.125C59.9792 33.375 59.3958 32.4375 58.4375 32.3125C57.7292 32.2292 57.3125 31.1667 57.1875 29.125C57.1458 28.0833 57.1875 27.1042 57.3125 26.1875C57.4375 25.2292 57.6042 24.4167 57.8125 23.75C58.1458 22.5417 58.25 21.1458 58.125 19.5625C58 17.9375 58 16.5 58.125 15.25C58.3333 12.9167 58.8333 11.0208 59.625 9.5625C60 8.9375 60.5417 8.3125 61.25 7.6875C62 7.0625 62.7292 6.45833 63.4375 5.875ZM67.375 23.75C67.5 24.3333 67.7083 24.8125 68 25.1875C68.3333 25.5208 68.5625 26.0625 68.6875 26.8125C68.8542 27.5625 68.9167 28.3958 68.875 29.3125C68.8333 30.1875 68.8125 31.0417 68.8125 31.875C68.8125 32.6667 68.8542 33.3958 68.9375 34.0625C69.0208 34.6875 69.1458 35.2708 69.3125 35.8125C69.7708 37.1042 70.4167 37.75 71.25 37.75C72.5417 37.75 73.4375 35.25 73.9375 30.25C74.1042 28.875 74.1875 27.125 74.1875 25C74.1875 22.8333 73.8542 20.9792 73.1875 19.4375C72.5208 17.8542 71.7083 17.0625 70.75 17.0625C69.8333 17.0625 69 18.0833 68.25 20.125C67.5833 21.9583 67.2917 23.1667 67.375 23.75ZM112.188 23.3125L112.125 19.125C112.167 18.125 112.271 17.3958 112.438 16.9375C112.604 16.4792 112.708 16.0208 112.75 15.5625C112.833 15.0625 112.896 14.5625 112.938 14.0625C113.021 13.5208 113.104 13 113.188 12.5C113.396 11.3333 113.688 10.7083 114.062 10.625C114.438 10.5417 114.667 10.0833 114.75 9.25C114.958 7.875 114.917 6.77083 114.625 5.9375C114.292 4.9375 114.312 4.16667 114.688 3.625C115.396 2.54167 116.562 2.375 118.188 3.125C119.354 3.625 120.188 3.875 120.688 3.875C121.188 3.875 121.625 3.83333 122 3.75C122.417 3.625 122.979 3.47917 123.688 3.3125C124.438 3.10417 125.021 3.375 125.438 4.125C125.896 4.83333 126.083 5.54167 126 6.25C125.958 6.95833 125.896 7.625 125.812 8.25C125.729 8.83333 125.646 9.45833 125.562 10.125C125.271 11.7917 125.021 12.8958 124.812 13.4375C124.646 13.9375 124.521 14.4792 124.438 15.0625C124.354 15.6042 124.271 16.1875 124.188 16.8125C124.021 18.6458 123.833 19.9583 123.625 20.75C122.542 24.8333 122 27.3125 122 28.1875C122 29.0625 121.958 29.6042 121.875 29.8125C121.792 30.0208 121.688 30.2292 121.562 30.4375C121.438 30.6458 121.271 30.9167 121.062 31.25C120.854 31.5417 120.625 32.0208 120.375 32.6875C120.042 33.5625 119.896 34.3542 119.938 35.0625C120.021 36.5208 119.917 37.6458 119.625 38.4375C119.333 39.2292 119.021 40.0417 118.688 40.875C118.396 41.6667 118.104 42.4583 117.812 43.25C117.104 45 116.667 46.375 116.5 47.375C116.333 48.375 116 49.125 115.5 49.625C115.042 50.1667 114.542 50.3333 114 50.125C113.5 49.9167 113.167 49.6667 113 49.375C112.875 49.0833 112.75 48.7917 112.625 48.5C112.25 47.6667 111.792 47.1667 111.25 47C110.417 46.6667 109.792 46.0833 109.375 45.25C109 44.375 108.771 43.3333 108.688 42.125C108.646 40.9167 108.583 39.8333 108.5 38.875C108.417 37.9167 108.312 37.0417 108.188 36.25C107.812 34.2917 107.417 33.3125 107 33.3125C106.75 33.3125 106.562 33.5417 106.438 34C106.312 34.4167 106.188 34.9583 106.062 35.625C105.688 37.5 105.271 38.7917 104.812 39.5C104.396 40.2083 104.125 40.8333 104 41.375C103.875 41.9167 103.771 42.4375 103.688 42.9375C103.646 43.4375 103.604 43.9375 103.562 44.4375C103.521 44.8958 103.396 45.375 103.188 45.875C103.021 46.375 102.812 46.8958 102.562 47.4375C102.312 47.9375 102 48.375 101.625 48.75C100.75 49.5417 99.75 49.5833 98.625 48.875C97.9167 48.4167 97.125 48.0625 96.25 47.8125C95.375 47.5208 94.7917 47.2917 94.5 47.125C94.2083 46.9167 93.9375 46.5625 93.6875 46.0625C93.4792 45.5625 93.3125 44.875 93.1875 44C93.1042 43.0833 92.9792 42.0417 92.8125 40.875C92.3125 37.5417 91.7292 34.8542 91.0625 32.8125C90.5208 31.1458 89.9792 28.875 89.4375 26C88.8958 23.0833 88.5208 21.1875 88.3125 20.3125C88.1458 19.3958 87.9792 18.9167 87.8125 18.875C87.5208 18.8333 87.2708 18.4167 87.0625 17.625C86.7708 16.25 86.6875 15.2083 86.8125 14.5C86.9375 13.7917 86.9583 13.1458 86.875 12.5625C86.8333 11.9375 86.75 11.3125 86.625 10.6875C86.5 10.0625 86.3542 9.45833 86.1875 8.875C86.0625 8.29167 85.9375 7.66667 85.8125 7C85.4375 5.41667 85.7708 4.27083 86.8125 3.5625C88.3125 2.64583 89.5625 2.5625 90.5625 3.3125C91.0208 2.97917 91.6458 3.02083 92.4375 3.4375C92.8958 2.97917 93.4583 2.60417 94.125 2.3125C94.8333 2.02083 95.4583 1.97917 96 2.1875C96.5417 2.35417 96.9583 2.66667 97.25 3.125C97.5417 3.54167 97.7708 4.0625 97.9375 4.6875C98.1875 5.5625 98.375 6.75 98.5 8.25C98.6667 9.70833 98.75 10.75 98.75 11.375C98.75 12 98.75 12.625 98.75 13.25C98.75 14.75 98.875 16.375 99.125 18.125C99.4167 19.875 99.5417 21.25 99.5 22.25C99.5 23.2083 99.5417 23.8958 99.625 24.3125C99.7083 24.6875 99.7917 25.0208 99.875 25.3125C99.9583 25.6042 100.062 25.875 100.188 26.125C100.479 26.5833 100.833 26.75 101.25 26.625C101.5 26.5 101.625 26.3125 101.625 26.0625C101.625 25.7708 101.583 25.4167 101.5 25C101.458 24.5833 101.396 24.125 101.312 23.625C101.229 23.125 101.208 22.625 101.25 22.125C101.292 21.5833 101.333 20.9375 101.375 20.1875C101.458 19.3958 101.521 18.5833 101.562 17.75C101.771 15.375 101.958 13.6875 102.125 12.6875C102.292 11.6458 102.417 10.8542 102.5 10.3125C102.583 9.72917 102.688 9.10417 102.812 8.4375C103.521 7.89583 104.062 7.14583 104.438 6.1875C104.271 5.97917 104.188 5.79167 104.188 5.625L104.625 3.8125C104.667 3.35417 104.875 2.95833 105.25 2.625C105.625 2.25 105.979 2.10417 106.312 2.1875C106.646 2.27083 106.896 2.375 107.062 2.5C107.229 2.625 107.396 2.85417 107.562 3.1875C107.812 3.8125 107.958 4.83333 108 6.25C108.083 7.66667 108.146 8.66667 108.188 9.25C108.271 9.83333 108.333 10.3542 108.375 10.8125C108.417 11.2292 108.458 11.6458 108.5 12.0625C108.542 12.4375 108.562 13.0417 108.562 13.875C108.562 14.6667 108.542 15.4583 108.5 16.25C108.458 17.0417 108.625 17.8333 109 18.625C109.375 19.4167 109.583 19.9583 109.625 20.25C109.667 20.5 109.667 20.7708 109.625 21.0625C109.583 21.3125 109.521 21.625 109.438 22C109.396 22.3333 109.375 22.8542 109.375 23.5625C109.375 24.8542 109.688 25.7917 110.312 26.375C111.271 27.25 111.854 26.9167 112.062 25.375C112.146 24.75 112.188 24.0625 112.188 23.3125ZM138.375 48.75C136.708 50.0417 135.292 50.6875 134.125 50.6875C133.583 50.6875 133 50.5208 132.375 50.1875C131.792 49.8542 131.396 49.4583 131.188 49C131.021 48.5417 130.938 48.0417 130.938 47.5C130.938 46.9167 130.938 46.2917 130.938 45.625C130.979 44.5 130.812 43.4792 130.438 42.5625C130.062 41.6458 129.812 40.9792 129.688 40.5625C129.479 39.6875 129.417 38.4167 129.5 36.75C129.542 35.4583 129.5 34.6875 129.375 34.4375C129.25 34.1458 129.188 33.875 129.188 33.625C129.188 33.375 129.271 32.5 129.438 31C129.896 27.4167 129.688 25.5833 128.812 25.5C128.354 25.4167 128.125 25.3125 128.125 25.1875C128.167 25.0625 128.062 24.7917 127.812 24.375C127.562 23.9167 127.396 23.5625 127.312 23.3125C127.271 23.0625 127.25 22.6667 127.25 22.125C127.25 21.5833 127.312 21.0833 127.438 20.625C127.562 20.1667 127.708 19.7083 127.875 19.25C129.042 16.0833 129.458 13.4167 129.125 11.25C128.667 8.875 128.5 7.20833 128.625 6.25C128.792 5.25 129.021 4.54167 129.312 4.125C129.646 3.70833 130.021 3.33333 130.438 3C130.854 2.625 131.354 2.33333 131.938 2.125C133.188 1.70833 134.271 1.8125 135.188 2.4375C136.146 3.0625 137.021 3.45833 137.812 3.625C138.604 3.79167 139.354 3.89583 140.062 3.9375C141.896 4.0625 143.021 4.29167 143.438 4.625C143.854 4.95833 144.25 5.22917 144.625 5.4375C145.042 5.60417 145.396 5.75 145.688 5.875C146.521 6.29167 147.021 6.6875 147.188 7.0625C147.354 7.4375 147.583 7.79167 147.875 8.125C148.167 8.41667 148.479 8.75 148.812 9.125C149.562 10.0833 150.042 11.1042 150.25 12.1875C150.375 12.8958 150.479 13.5208 150.562 14.0625C150.646 14.6042 150.75 15.125 150.875 15.625C151.25 17.25 151.688 18.6875 152.188 19.9375C153.188 22.4792 153.438 24.4375 152.938 25.8125L152.812 26.0625C153.146 26.8958 153.188 27.7917 152.938 28.75C152.729 29.6667 152.562 30.3333 152.438 30.75C152.354 31.125 152.229 31.5625 152.062 32.0625C151.896 32.5625 151.708 33.2083 151.5 34C151.292 34.75 151.083 35.4167 150.875 36C150.667 36.5417 150.438 37.0417 150.188 37.5C149.688 38.4167 148.396 39.9583 146.312 42.125C145.646 42.7917 145.167 43.4583 144.875 44.125C144.625 44.7917 144.25 45.3125 143.75 45.6875C143.083 46.9375 142.521 47.7083 142.062 48C141.146 48.7083 139.917 48.9583 138.375 48.75ZM137.5 21.1875L137.688 24.75C137.771 25.75 137.708 26.6875 137.5 27.5625C137.292 28.3958 137.25 29.2917 137.375 30.25C137.542 31.2083 137.583 32.0208 137.5 32.6875C137.417 33.3542 137.458 33.8958 137.625 34.3125C137.792 34.7292 137.833 35.1667 137.75 35.625C137.708 36.0417 137.667 36.4583 137.625 36.875C137.542 37.9583 137.75 38.5417 138.25 38.625C138.583 38.6667 138.896 38.5208 139.188 38.1875C139.479 37.8125 139.729 37.3542 139.938 36.8125C140.312 35.9375 140.625 34.7917 140.875 33.375C140.958 32.7917 141.167 32.1667 141.5 31.5C142.083 30.25 142.375 29.3542 142.375 28.8125C142.375 28.2292 142.396 27.875 142.438 27.75C142.479 27.5833 142.521 27.4167 142.562 27.25C142.646 27.0833 142.729 26.8958 142.812 26.6875C142.896 26.4792 142.979 26.1042 143.062 25.5625C143.146 24.9792 143.062 24.2708 142.812 23.4375C142.604 22.5625 142.167 21.8542 141.5 21.3125C140.875 20.7708 140.438 20.3125 140.188 19.9375C139.938 19.5625 139.708 19.2292 139.5 18.9375C139.083 18.3542 138.688 18.1875 138.312 18.4375C137.771 18.8542 137.5 19.7708 137.5 21.1875ZM178.5 12.5625C178.625 12.8125 178.667 13.0833 178.625 13.375C178.583 13.6667 178.292 14.1667 177.75 14.875C177.208 15.5833 176.875 16.3542 176.75 17.1875C176.667 17.9792 176.646 18.6458 176.688 19.1875C176.729 19.6875 176.729 20.125 176.688 20.5C176.646 21.4167 176.146 22.0417 175.188 22.375C174.354 22.7083 173.708 22.6875 173.25 22.3125C172.792 21.9375 172.417 21.4583 172.125 20.875C171.833 20.25 171.604 19.7292 171.438 19.3125C171.312 18.8542 171.083 18.6042 170.75 18.5625C170.167 18.4375 169.708 18.5 169.375 18.75C169.083 19 168.854 19.2083 168.688 19.375C168.354 19.7083 168 19.9375 167.625 20.0625C167.292 20.1875 167.021 20.3125 166.812 20.4375C166.396 20.7292 166.229 21.2083 166.312 21.875C166.479 23.1667 167.917 25.125 170.625 27.75C171.125 28.25 171.708 28.7917 172.375 29.375C173.083 29.9583 173.771 30.625 174.438 31.375C175.938 33.1667 176.771 35.1875 176.938 37.4375C177.104 39.7292 176.771 41.7292 175.938 43.4375C175.271 44.8125 174.479 45.7083 173.562 46.125C172.854 46.5 172.375 47 172.125 47.625C171.875 48.2083 171.688 48.6458 171.562 48.9375C171.438 49.1875 171.167 49.3958 170.75 49.5625C170.375 49.7708 169.938 49.8542 169.438 49.8125C168.938 49.7708 168.458 49.6667 168 49.5C167.583 49.375 167.188 49.2083 166.812 49C166.479 48.8333 166.188 48.7292 165.938 48.6875C165.729 48.6458 165.521 48.7292 165.312 48.9375C165.104 49.1042 164.896 49.2917 164.688 49.5C164.062 50.125 163.5 50.3542 163 50.1875C162.5 50.0625 161.917 49.8333 161.25 49.5C160.583 49.1667 159.938 48.75 159.312 48.25C157.062 46.5 156.292 44.7083 157 42.875C157.458 41.6667 157.958 40.8125 158.5 40.3125C159.083 39.8125 159.542 39.5625 159.875 39.5625C160.417 39.5625 160.771 39.7708 160.938 40.1875C161.146 40.5625 161.312 40.8958 161.438 41.1875C161.562 41.4375 161.708 41.6458 161.875 41.8125C162.042 41.9792 162.292 42.1458 162.625 42.3125C163 42.4792 163.396 42.5833 163.812 42.625C164.854 42.7083 165.646 42.2917 166.188 41.375C166.729 40.4583 166.938 39.4583 166.812 38.375C166.521 36.4167 166.104 35.5833 165.562 35.875C165.104 36.1667 164.542 36.1875 163.875 35.9375C163.208 35.6458 162.854 35.2917 162.812 34.875C162.771 34.4167 162.688 33.9792 162.562 33.5625C162.438 33.1458 162.292 32.75 162.125 32.375C161.75 31.4167 161.417 30.8958 161.125 30.8125C160.792 30.7292 160.333 30.6875 159.75 30.6875C159.208 30.6875 158.604 30.3333 157.938 29.625C157.271 28.875 156.792 27.9583 156.5 26.875C156.208 25.75 155.958 24.7917 155.75 24C155.542 23.1667 155.354 22.5208 155.188 22.0625C155.021 21.6042 154.875 21.125 154.75 20.625C154.333 19.0417 154.312 17 154.688 14.5C154.938 13.0417 155.396 11.7708 156.062 10.6875C156.729 9.5625 157.479 8.45833 158.312 7.375C159.896 5.25 161.354 3.77083 162.688 2.9375C164.021 2.10417 165.042 2.02083 165.75 2.6875C166.375 3.22917 167.042 3.45833 167.75 3.375C168.5 3.25 169.083 3.125 169.5 3L170.625 2.75C171.333 2.58333 172.042 2.60417 172.75 2.8125C173.5 3.02083 174.167 3.72917 174.75 4.9375C175.042 5.5625 175.333 6.10417 175.625 6.5625C175.958 7.02083 176.271 7.45833 176.562 7.875C177.188 8.875 177.542 9.70833 177.625 10.375C177.75 11 177.896 11.4583 178.062 11.75C178.271 12.0417 178.417 12.3125 178.5 12.5625ZM192.438 12.3125L192.125 26.5C192.125 32.7917 193 35.7708 194.75 35.4375C196.25 35.1875 196.938 32.5417 196.812 27.5C196.812 26 196.917 25.0417 197.125 24.625C197.375 24.1667 197.542 23.7917 197.625 23.5C197.833 22.6667 197.875 21.5625 197.75 20.1875C197.667 19.3125 197.521 18 197.312 16.25C197.104 14.5 196.917 12.7083 196.75 10.875C196.583 9 196.5 7.3125 196.5 5.8125C196.5 4.3125 196.646 3.375 196.938 3C197.271 2.625 197.667 2.41667 198.125 2.375C198.625 2.29167 199.125 2.29167 199.625 2.375C200.167 2.41667 200.667 2.5 201.125 2.625C201.625 2.75 202.021 2.8125 202.312 2.8125C202.646 2.8125 203.021 2.77083 203.438 2.6875C203.896 2.5625 204.333 2.47917 204.75 2.4375C205.208 2.35417 205.625 2.3125 206 2.3125C206.417 2.3125 206.792 2.45833 207.125 2.75C207.458 3.04167 207.729 3.77083 207.938 4.9375C208.188 6.10417 208.354 7.47917 208.438 9.0625C208.562 10.6458 208.625 12.3542 208.625 14.1875C208.625 15.9792 208.604 17.6875 208.562 19.3125C208.396 22.8958 208.229 25.0625 208.062 25.8125C207.938 26.5625 207.771 27.1042 207.562 27.4375C207.354 27.7708 207.146 28.0833 206.938 28.375C206.521 28.9583 206.458 29.7917 206.75 30.875C207.042 31.9583 207.271 32.7917 207.438 33.375C207.729 34.4167 207.75 35.3542 207.5 36.1875C207.25 37.0208 207.167 37.8333 207.25 38.625C207.458 40.75 207.208 42.2708 206.5 43.1875C206.167 43.6458 205.646 44.0833 204.938 44.5C203.521 45.2917 202.479 46.25 201.812 47.375C201.479 48.0417 201.083 48.4375 200.625 48.5625C200.375 48.6458 200 48.6667 199.5 48.625C199 48.5417 198.458 48.4792 197.875 48.4375C197.292 48.3542 196.729 48.2917 196.188 48.25C195.646 48.1667 195.271 48.1667 195.062 48.25C194.854 48.2917 194.667 48.4167 194.5 48.625C194.333 48.7917 194.146 48.9792 193.938 49.1875C192.812 50.3125 191.646 50.1875 190.438 48.8125C190.188 48.5208 189.938 48.25 189.688 48C189.479 47.7083 189.271 47.5 189.062 47.375C188.854 47.2083 188.562 47.0625 188.188 46.9375C187.854 46.7708 187.479 46.5417 187.062 46.25C185.271 45.1667 184.146 43.4167 183.688 41C183.438 39.8333 183.229 38.3333 183.062 36.5C182.896 34.625 182.75 33.4375 182.625 32.9375C182.542 32.4375 182.292 31.8958 181.875 31.3125C181.458 30.6875 181.188 30.125 181.062 29.625C180.938 29.0833 180.917 28.5208 181 27.9375C181.083 27.3542 181.188 26.6875 181.312 25.9375C181.646 23.9375 181.729 22.1875 181.562 20.6875C181.396 19.1875 181.354 18.0208 181.438 17.1875C181.562 16.3542 181.583 15.8333 181.5 15.625C181.417 15.375 181.271 15.1458 181.062 14.9375C180.896 14.7292 180.854 14.2917 180.938 13.625C181.021 12.9583 181.062 12.3125 181.062 11.6875C181.062 11.0625 181.062 10.4167 181.062 9.75C181.188 6.91667 181.625 5.20833 182.375 4.625C183 4.16667 183.646 3.91667 184.312 3.875C185.354 3.83333 186.125 3.64583 186.625 3.3125C187.167 2.97917 187.604 2.70833 187.938 2.5C190.021 1.33333 191.312 2.16667 191.812 5C192.146 6.75 192.354 9.1875 192.438 12.3125ZM228.875 4.0625L230.875 3.9375C232.292 3.9375 233.292 4.16667 233.875 4.625C234.5 5.08333 234.958 5.5 235.25 5.875C235.583 6.25 235.875 6.64583 236.125 7.0625C236.375 7.4375 236.708 7.83333 237.125 8.25C237.583 8.66667 237.812 9.16667 237.812 9.75C237.812 10.2917 237.958 10.7292 238.25 11.0625C238.583 11.3958 238.75 11.9375 238.75 12.6875C238.75 13.4375 238.729 14.1667 238.688 14.875C238.688 15.5417 238.625 16.1042 238.5 16.5625C238.375 16.9792 238.312 17.4167 238.312 17.875C238.312 18.2917 238.396 18.6875 238.562 19.0625C238.771 19.3958 238.792 20.25 238.625 21.625C238.5 22.9583 238.271 24.3125 237.938 25.6875C237.646 27.0625 237.25 28.25 236.75 29.25C235.75 31.125 234.125 32.6042 231.875 33.6875C232.083 34.1875 232.312 34.75 232.562 35.375C232.854 35.9583 233.125 36.5625 233.375 37.1875C233.917 38.7292 234.188 39.8542 234.188 40.5625C234.188 41.2292 234.208 41.7292 234.25 42.0625C234.333 42.3542 234.417 42.5833 234.5 42.75C234.583 42.9167 234.688 43.0417 234.812 43.125C234.979 43.2083 235.208 43.375 235.5 43.625C235.792 43.8333 236.021 44.2083 236.188 44.75C236.354 45.2917 236.438 45.8542 236.438 46.4375C236.438 47.7708 236.271 48.6042 235.938 48.9375C235.646 49.2292 235.312 49.4167 234.938 49.5C234.604 49.625 234.25 49.7083 233.875 49.75C232.917 49.875 232.312 49.75 232.062 49.375C231.729 49.0417 231.542 48.7083 231.5 48.375C231.5 48 231.438 47.6875 231.312 47.4375C231.188 47.1458 231 46.9792 230.75 46.9375C230.5 46.8542 230.312 46.5833 230.188 46.125C230.104 45.6667 229.958 45.375 229.75 45.25C229.583 45.0833 229.208 45.0417 228.625 45.125C227.583 45.3333 226.812 44.7083 226.312 43.25C226.188 42.9167 226.062 42.4792 225.938 41.9375C225.812 41.3958 225.667 40.875 225.5 40.375C225.167 39.1667 224.771 38.5208 224.312 38.4375C223.896 38.3125 223.583 38.3542 223.375 38.5625C223.167 38.7708 223 39.0625 222.875 39.4375C222.792 39.7708 222.75 40.1667 222.75 40.625C222.75 41.0417 222.792 41.5 222.875 42C223 42.5 223.021 42.9167 222.938 43.25C222.854 43.5833 222.729 43.8542 222.562 44.0625C222.438 44.2708 222.292 44.4583 222.125 44.625C221.792 44.8333 221.583 45.25 221.5 45.875C221.458 46.5 221.375 47.0417 221.25 47.5C221 48.625 220.667 49.3333 220.25 49.625C219.833 49.9167 219.417 50.0833 219 50.125C218.583 50.2083 218.167 50.2083 217.75 50.125C216.708 49.9167 216.062 49.5417 215.812 49C215.562 48.5 215.417 48.125 215.375 47.875C215.333 47.5833 215.312 47.3125 215.312 47.0625C215.354 46.8125 215.396 46.5417 215.438 46.25C215.479 45.9583 215.479 45.625 215.438 45.25C215.438 44.8333 215.354 44.2917 215.188 43.625C215.021 42.9583 214.917 42.1667 214.875 41.25L214.812 39.625C214.812 39.4583 214.958 39.1875 215.25 38.8125C215.542 38.3958 215.625 37.9375 215.5 37.4375C215.417 36.8958 215.188 36.5625 214.812 36.4375C214.438 36.2708 214.25 36.0833 214.25 35.875C214.25 35.6667 214.292 35.1458 214.375 34.3125C214.458 33.4792 214.417 32.4375 214.25 31.1875C214.125 29.9375 214.042 28.8333 214 27.875C213.833 25.7917 213.458 24.625 212.875 24.375C212.333 24.0833 212.021 23.75 211.938 23.375C211.854 22.9583 211.854 22.5 211.938 22C212.021 21.5 212.104 20.875 212.188 20.125C212.312 19.375 212.438 18.625 212.562 17.875C212.688 17.0833 212.792 16.3542 212.875 15.6875C213 15.0208 213.083 14.5625 213.125 14.3125C213.167 14.0625 213.167 13.8333 213.125 13.625C213.125 13.375 213.125 13.1458 213.125 12.9375C213.042 12.2708 213.042 11.6875 213.125 11.1875C213.292 10.2292 213.333 9.5625 213.25 9.1875C213.167 8.77083 213.229 8.16667 213.438 7.375C213.688 6.54167 213.896 5.95833 214.062 5.625C214.229 5.29167 214.542 5.04167 215 4.875C215.458 4.70833 215.896 4.47917 216.312 4.1875C216.771 3.85417 217.188 3.54167 217.562 3.25C217.938 2.91667 218.271 2.625 218.562 2.375C218.854 2.08333 219.208 1.875 219.625 1.75C220.833 1.5 221.708 1.47917 222.25 1.6875C222.833 1.85417 223.25 2.04167 223.5 2.25C223.75 2.45833 224.042 2.66667 224.375 2.875C224.75 3.08333 225.125 3.25 225.5 3.375C225.917 3.45833 226.292 3.5 226.625 3.5C227.5 3.58333 228.021 3.70833 228.188 3.875C228.396 4 228.625 4.0625 228.875 4.0625ZM223.688 21.5L224.062 27.1875C224.062 27.5625 224.042 27.9375 224 28.3125C223.958 28.6458 223.917 28.9583 223.875 29.25C223.833 29.875 224.062 30.25 224.562 30.375C224.979 30.4583 225.312 30.3542 225.562 30.0625C225.812 29.7292 226.042 29.2917 226.25 28.75C226.75 27.7083 226.917 27.0417 226.75 26.75C226.417 26.3333 226.312 25.9792 226.438 25.6875C226.604 25.3542 226.917 24.7292 227.375 23.8125C227.875 22.8958 228.229 22.1042 228.438 21.4375C228.688 20.7708 228.75 20.0625 228.625 19.3125C228.5 18.5208 228.438 17.9792 228.438 17.6875V17C228.438 16.6667 228.271 16.375 227.938 16.125C227.646 15.8333 227.438 15.6875 227.312 15.6875C227.188 15.6458 227.083 15.625 227 15.625C226.625 15.7083 226.271 15.6875 225.938 15.5625C225.604 15.3958 225.292 15.3333 225 15.375C224.708 15.375 224.375 15.5625 224 15.9375C223.625 16.3125 223.417 16.7083 223.375 17.125C223.333 17.5 223.333 17.9375 223.375 18.4375C223.583 19.9375 223.688 20.9583 223.688 21.5ZM252.625 23.8125C252.625 24.9792 253.229 25.5625 254.438 25.5625C254.729 25.5625 255 25.5417 255.25 25.5C255.5 25.4167 255.917 25.3125 256.5 25.1875C257.125 25.0625 257.688 25.1875 258.188 25.5625C258.729 25.8958 259.125 26.1458 259.375 26.3125C259.667 26.4792 259.896 26.6667 260.062 26.875C260.354 27.25 260.479 27.9583 260.438 29C260.438 30 260.229 30.9375 259.812 31.8125C259.396 32.6458 258.458 33.1667 257 33.375C255.542 33.5833 254.438 33.8958 253.688 34.3125C252.979 34.7292 252.542 35.4167 252.375 36.375C252.25 37.3333 252.083 38 251.875 38.375C251.667 38.75 251.542 39.1667 251.5 39.625C251.458 40.0833 251.333 40.5833 251.125 41.125C250.958 41.625 250.896 42.1042 250.938 42.5625C251.021 43.0208 251.042 43.6458 251 44.4375C251 45.1875 250.896 45.9375 250.688 46.6875C250.188 48.5208 249.292 49.4375 248 49.4375C247.5 49.4375 247.104 49.1875 246.812 48.6875C246.562 48.1458 246.333 47.5208 246.125 46.8125C245.958 46.1042 245.771 45.3542 245.562 44.5625C245.396 43.7708 245.062 42.9583 244.562 42.125C244.062 41.25 243.771 40.2708 243.688 39.1875C243.646 38.1042 243.625 37.0417 243.625 36V33C243.625 29.3333 243.208 27.0417 242.375 26.125C241.833 25.5833 241.604 24.5417 241.688 23V21.25C241.688 20.625 241.792 20.125 242 19.75C242.5 18.6667 242.625 17.1458 242.375 15.1875C242.167 13.2292 241.958 11.7292 241.75 10.6875C241.542 9.60417 241.521 8.58333 241.688 7.625C241.896 6.66667 242.021 5.91667 242.062 5.375C242.146 4.83333 242.354 4.3125 242.688 3.8125C243.062 3.3125 243.375 3.04167 243.625 3C243.917 2.91667 244.25 2.89583 244.625 2.9375C245.125 2.97917 245.562 2.8125 245.938 2.4375C247.312 1.0625 248.604 0.75 249.812 1.5C250.312 1.83333 250.812 2.1875 251.312 2.5625C251.854 2.9375 252.438 3.27083 253.062 3.5625C253.688 3.85417 254.396 3.95833 255.188 3.875C256.021 3.79167 256.833 3.66667 257.625 3.5C258.417 3.33333 259.208 3.29167 260 3.375C262 3.5 263.458 4.41667 264.375 6.125C265 7.29167 265.229 8.52083 265.062 9.8125C264.938 11.0625 264.812 12.0833 264.688 12.875C264.562 13.6667 264.5 14.3333 264.5 14.875C264.5 15.375 264.479 15.6875 264.438 15.8125C264.396 15.9375 264.354 16.0417 264.312 16.125C264.146 16.5833 264.042 17.2083 264 18C263.958 18.7917 263.875 19.375 263.75 19.75C263.375 20.7083 262.646 21.1875 261.562 21.1875C260.854 21.1875 260.25 21.0625 259.75 20.8125C258.75 20.3125 258.042 20.0417 257.625 20C257.042 19.9167 256.646 19.5833 256.438 19C256.354 18.7917 256.271 18.5833 256.188 18.375C256.104 18.125 255.979 17.9167 255.812 17.75C255.646 17.5417 255.458 17.2917 255.25 17C255.083 16.6667 254.708 16.5417 254.125 16.625C252.958 16.7917 252.417 17.4583 252.5 18.625L252.625 22.25V23.8125ZM268.562 37.25L268.5 34.0625C268.5 33.4792 268.521 32.9375 268.562 32.4375C268.604 31.8958 268.562 31.2292 268.438 30.4375C268.229 29.0625 268.125 28.0625 268.125 27.4375C268.167 26.7708 268.167 26.25 268.125 25.875C268.125 25.4583 268.083 25.0833 268 24.75C267.875 24.25 267.562 23.4583 267.062 22.375C266.604 21.2917 266.375 20.125 266.375 18.875C266.375 17.625 266.646 16.625 267.188 15.875C267.688 15.125 267.875 14.3542 267.75 13.5625C267.625 12.7708 267.521 11.9375 267.438 11.0625C267.396 10.1458 267.396 9.22917 267.438 8.3125C267.479 7.35417 267.688 6.4375 268.062 5.5625C268.979 3.4375 270.812 2.41667 273.562 2.5C275.271 2.54167 276.75 2.70833 278 3C279.25 3.29167 280.167 3.41667 280.75 3.375C281.333 3.33333 282.229 3.125 283.438 2.75C285.188 2.08333 286.583 2.125 287.625 2.875C287.917 3.08333 288.188 3.25 288.438 3.375C288.729 3.45833 288.979 3.60417 289.188 3.8125C289.896 4.60417 290.104 6.33333 289.812 9C289.729 9.79167 289.646 10.5833 289.562 11.375C289.354 13.25 289.354 14.6458 289.562 15.5625C289.771 16.4792 289.875 17.2917 289.875 18C289.917 18.6667 289.896 19.2708 289.812 19.8125C289.562 21.0208 289.083 21.625 288.375 21.625C287.75 21.5833 287.292 21.3958 287 21.0625C286.75 20.6875 286.542 20.2917 286.375 19.875C286.208 19.4167 286.021 19.0208 285.812 18.6875C285.646 18.3125 285.25 18.125 284.625 18.125C282.792 18.125 281.562 17.9375 280.938 17.5625C280.354 17.1458 279.833 16.9167 279.375 16.875C278.917 16.7917 278.479 16.8333 278.062 17C277.188 17.375 276.667 18.0625 276.5 19.0625C276.375 20.0625 276.292 20.9375 276.25 21.6875C276.208 22.4375 276.208 23.125 276.25 23.75C276.333 25.2083 276.604 26.0417 277.062 26.25C277.562 26.4167 277.979 26.4375 278.312 26.3125C278.646 26.1458 278.979 25.9583 279.312 25.75C280.312 25.0833 281.333 24.7708 282.375 24.8125C283.458 24.8125 284.25 25.2292 284.75 26.0625C285.292 26.8958 285.521 27.7083 285.438 28.5C285.354 29.25 285.271 30 285.188 30.75C285.146 31.5 285.062 32.2083 284.938 32.875C284.354 35.4583 283.146 35.9583 281.312 34.375C278.938 34.2083 277.458 34.5 276.875 35.25C276.75 35.4583 276.625 35.8958 276.5 36.5625C276.375 37.2292 276.354 37.9375 276.438 38.6875C276.646 40.6458 277.583 41.6875 279.25 41.8125C280.333 41.8958 281.312 41.75 282.188 41.375C283.104 41 283.708 40.5833 284 40.125C284.25 39.625 284.562 39.3542 284.938 39.3125C285.312 39.2292 285.646 39.1667 285.938 39.125C286.229 39.0417 286.521 39 286.812 39C287.104 39 287.396 39.0417 287.688 39.125C288.438 39.375 288.875 39.9583 289 40.875C289.167 41.7917 289.083 42.625 288.75 43.375C288.417 44.125 288.188 44.8125 288.062 45.4375C287.979 46.0208 287.896 46.4583 287.812 46.75C287.729 47.0417 287.479 47.4167 287.062 47.875C286.688 48.2917 286.375 48.6458 286.125 48.9375C285.917 49.2292 285.562 49.1667 285.062 48.75C284.146 48.0417 283.042 48.4583 281.75 50C281.417 50.4583 281.062 50.7917 280.688 51C280.312 51.2083 279.729 51.2917 278.938 51.25C278.146 51.2083 277.521 51 277.062 50.625C276.604 50.25 276.188 49.875 275.812 49.5C275.188 48.7083 274.104 48.4167 272.562 48.625C271.646 48.75 270.896 48.3542 270.312 47.4375C270.188 47.3125 270.083 47.0833 270 46.75C269.958 46.4167 269.896 46.0417 269.812 45.625C269.521 44.5417 269.25 43.8542 269 43.5625C268.792 43.2292 268.667 42.8125 268.625 42.3125C268.625 41.8125 268.583 41.2917 268.5 40.75C268.417 40.1667 268.354 39.75 268.312 39.5C268.271 39.2083 268.292 38.875 268.375 38.5C268.5 38.125 268.562 37.7083 268.562 37.25ZM309.5 4.0625L311.5 3.9375C312.917 3.9375 313.917 4.16667 314.5 4.625C315.125 5.08333 315.583 5.5 315.875 5.875C316.208 6.25 316.5 6.64583 316.75 7.0625C317 7.4375 317.333 7.83333 317.75 8.25C318.208 8.66667 318.438 9.16667 318.438 9.75C318.438 10.2917 318.583 10.7292 318.875 11.0625C319.208 11.3958 319.375 11.9375 319.375 12.6875C319.375 13.4375 319.354 14.1667 319.312 14.875C319.312 15.5417 319.25 16.1042 319.125 16.5625C319 16.9792 318.938 17.4167 318.938 17.875C318.938 18.2917 319.021 18.6875 319.188 19.0625C319.396 19.3958 319.417 20.25 319.25 21.625C319.125 22.9583 318.896 24.3125 318.562 25.6875C318.271 27.0625 317.875 28.25 317.375 29.25C316.375 31.125 314.75 32.6042 312.5 33.6875C312.708 34.1875 312.938 34.75 313.188 35.375C313.479 35.9583 313.75 36.5625 314 37.1875C314.542 38.7292 314.812 39.8542 314.812 40.5625C314.812 41.2292 314.833 41.7292 314.875 42.0625C314.958 42.3542 315.042 42.5833 315.125 42.75C315.208 42.9167 315.312 43.0417 315.438 43.125C315.604 43.2083 315.833 43.375 316.125 43.625C316.417 43.8333 316.646 44.2083 316.812 44.75C316.979 45.2917 317.062 45.8542 317.062 46.4375C317.062 47.7708 316.896 48.6042 316.562 48.9375C316.271 49.2292 315.938 49.4167 315.562 49.5C315.229 49.625 314.875 49.7083 314.5 49.75C313.542 49.875 312.938 49.75 312.688 49.375C312.354 49.0417 312.167 48.7083 312.125 48.375C312.125 48 312.062 47.6875 311.938 47.4375C311.812 47.1458 311.625 46.9792 311.375 46.9375C311.125 46.8542 310.938 46.5833 310.812 46.125C310.729 45.6667 310.583 45.375 310.375 45.25C310.208 45.0833 309.833 45.0417 309.25 45.125C308.208 45.3333 307.438 44.7083 306.938 43.25C306.812 42.9167 306.688 42.4792 306.562 41.9375C306.438 41.3958 306.292 40.875 306.125 40.375C305.792 39.1667 305.396 38.5208 304.938 38.4375C304.521 38.3125 304.208 38.3542 304 38.5625C303.792 38.7708 303.625 39.0625 303.5 39.4375C303.417 39.7708 303.375 40.1667 303.375 40.625C303.375 41.0417 303.417 41.5 303.5 42C303.625 42.5 303.646 42.9167 303.562 43.25C303.479 43.5833 303.354 43.8542 303.188 44.0625C303.062 44.2708 302.917 44.4583 302.75 44.625C302.417 44.8333 302.208 45.25 302.125 45.875C302.083 46.5 302 47.0417 301.875 47.5C301.625 48.625 301.292 49.3333 300.875 49.625C300.458 49.9167 300.042 50.0833 299.625 50.125C299.208 50.2083 298.792 50.2083 298.375 50.125C297.333 49.9167 296.688 49.5417 296.438 49C296.188 48.5 296.042 48.125 296 47.875C295.958 47.5833 295.938 47.3125 295.938 47.0625C295.979 46.8125 296.021 46.5417 296.062 46.25C296.104 45.9583 296.104 45.625 296.062 45.25C296.062 44.8333 295.979 44.2917 295.812 43.625C295.646 42.9583 295.542 42.1667 295.5 41.25L295.438 39.625C295.438 39.4583 295.583 39.1875 295.875 38.8125C296.167 38.3958 296.25 37.9375 296.125 37.4375C296.042 36.8958 295.812 36.5625 295.438 36.4375C295.062 36.2708 294.875 36.0833 294.875 35.875C294.875 35.6667 294.917 35.1458 295 34.3125C295.083 33.4792 295.042 32.4375 294.875 31.1875C294.75 29.9375 294.667 28.8333 294.625 27.875C294.458 25.7917 294.083 24.625 293.5 24.375C292.958 24.0833 292.646 23.75 292.562 23.375C292.479 22.9583 292.479 22.5 292.562 22C292.646 21.5 292.729 20.875 292.812 20.125C292.938 19.375 293.062 18.625 293.188 17.875C293.312 17.0833 293.417 16.3542 293.5 15.6875C293.625 15.0208 293.708 14.5625 293.75 14.3125C293.792 14.0625 293.792 13.8333 293.75 13.625C293.75 13.375 293.75 13.1458 293.75 12.9375C293.667 12.2708 293.667 11.6875 293.75 11.1875C293.917 10.2292 293.958 9.5625 293.875 9.1875C293.792 8.77083 293.854 8.16667 294.062 7.375C294.312 6.54167 294.521 5.95833 294.688 5.625C294.854 5.29167 295.167 5.04167 295.625 4.875C296.083 4.70833 296.521 4.47917 296.938 4.1875C297.396 3.85417 297.812 3.54167 298.188 3.25C298.562 2.91667 298.896 2.625 299.188 2.375C299.479 2.08333 299.833 1.875 300.25 1.75C301.458 1.5 302.333 1.47917 302.875 1.6875C303.458 1.85417 303.875 2.04167 304.125 2.25C304.375 2.45833 304.667 2.66667 305 2.875C305.375 3.08333 305.75 3.25 306.125 3.375C306.542 3.45833 306.917 3.5 307.25 3.5C308.125 3.58333 308.646 3.70833 308.812 3.875C309.021 4 309.25 4.0625 309.5 4.0625ZM304.312 21.5L304.688 27.1875C304.688 27.5625 304.667 27.9375 304.625 28.3125C304.583 28.6458 304.542 28.9583 304.5 29.25C304.458 29.875 304.688 30.25 305.188 30.375C305.604 30.4583 305.938 30.3542 306.188 30.0625C306.438 29.7292 306.667 29.2917 306.875 28.75C307.375 27.7083 307.542 27.0417 307.375 26.75C307.042 26.3333 306.938 25.9792 307.062 25.6875C307.229 25.3542 307.542 24.7292 308 23.8125C308.5 22.8958 308.854 22.1042 309.062 21.4375C309.312 20.7708 309.375 20.0625 309.25 19.3125C309.125 18.5208 309.062 17.9792 309.062 17.6875V17C309.062 16.6667 308.896 16.375 308.562 16.125C308.271 15.8333 308.062 15.6875 307.938 15.6875C307.812 15.6458 307.708 15.625 307.625 15.625C307.25 15.7083 306.896 15.6875 306.562 15.5625C306.229 15.3958 305.917 15.3333 305.625 15.375C305.333 15.375 305 15.5625 304.625 15.9375C304.25 16.3125 304.042 16.7083 304 17.125C303.958 17.5 303.958 17.9375 304 18.4375C304.208 19.9375 304.312 20.9583 304.312 21.5Z" fill="white"/>
</svg>
