<svg width="219" height="34" viewBox="0 0 219 34" fill="none" xmlns="http://www.w3.org/2000/svg">
<path d="M0.2 34L5.576 0.159998H18.392C22.68 0.159998 26.136 0.895998 28.76 2.368C31.416 3.84 33.24 5.904 34.232 8.56C35.256 11.184 35.48 14.304 34.904 17.92C34.04 23.264 31.832 27.28 28.28 29.968C24.728 32.656 20.04 34 14.216 34H0.2ZM10.232 26.8H14.456C17.912 26.8 20.6 26.032 22.52 24.496C24.44 22.96 25.656 20.672 26.168 17.632C26.712 14.016 26.264 11.392 24.824 9.76C23.384 8.128 20.904 7.312 17.384 7.312H13.256L10.232 26.8ZM37.7 34L43.076 0.159998H67.364L66.26 6.928H50.468L49.46 13.408H64.1L63.044 20.224H48.356L47.252 27.184H63.044L61.988 34H37.7ZM66.6219 34L71.9979 0.159998H78.5259L92.2059 22L90.8619 21.424L94.2699 0.159998H102.478L97.1019 34H90.5739L76.9419 12.16L78.2859 12.736L74.9259 34H66.6219ZM98.669 34L116.093 14.944L115.805 18.928L104.669 0.159998H114.701L121.421 12.496H118.589L129.341 0.159998H140.045L122.909 18.928L123.197 14.944L134.669 34H124.589L117.533 21.376H120.365L109.325 34H98.669ZM136.606 34L141.982 0.159998H150.862L145.486 34H136.606ZM159.475 34L163.699 7.312H153.427L154.579 0.159998H184.003L182.851 7.312H172.579L168.355 34H159.475ZM191.408 34L194 17.824L194.912 22.72L183.44 0.159998H193.28L199.712 13.744H197.984L208.784 0.159998H218.96L200.24 23.104L202.832 17.824L200.288 34H191.408Z" fill="white"/>
</svg>
