<svg width="125" height="41" viewBox="0 0 125 41" fill="none" xmlns="http://www.w3.org/2000/svg">
<path d="M41.496 39.232C41.624 39.232 41.688 39.36 41.688 39.616C41.688 39.872 41.624 40 41.496 40H34.328C33.6453 40 33.0693 40.0213 32.6 40.064C32.1307 40.1067 31.7467 40.128 31.448 40.128C30.7653 40.128 30.168 39.9787 29.656 39.68C29.1867 39.3387 28.5893 38.7413 27.864 37.888C27.1813 37.0347 25.944 35.392 24.152 32.96C23.9387 32.6613 23.6827 32.3413 23.384 32C23.128 31.616 22.8293 31.1893 22.488 30.72L14.104 19.456L12.696 20.864V34.816C12.696 36.1387 12.8027 37.0987 13.016 37.696C13.2293 38.2933 13.6347 38.6987 14.232 38.912C14.872 39.1253 15.8747 39.232 17.24 39.232C17.4107 39.232 17.496 39.36 17.496 39.616C17.496 39.872 17.4107 40 17.24 40C15.832 40 14.7227 39.9787 13.912 39.936L9.112 39.872L4.376 39.936C3.52267 39.9787 2.37067 40 0.92 40C0.834667 40 0.792 39.872 0.792 39.616C0.792 39.36 0.834667 39.232 0.92 39.232C2.28533 39.232 3.288 39.1253 3.928 38.912C4.568 38.6987 4.99467 38.2933 5.208 37.696C5.464 37.056 5.592 36.096 5.592 34.816V5.184C5.592 3.904 5.464 2.96533 5.208 2.368C4.99467 1.77066 4.568 1.36533 3.928 1.152C3.33067 0.895997 2.37067 0.767998 1.048 0.767998C0.92 0.767998 0.856 0.639998 0.856 0.383999C0.856 0.128 0.92 0 1.048 0L4.44 0.0639992C6.40267 0.149331 7.96 0.191998 9.112 0.191998C10.392 0.191998 12.0133 0.149331 13.976 0.0639992L17.24 0C17.368 0 17.432 0.128 17.432 0.383999C17.432 0.639998 17.368 0.767998 17.24 0.767998C15.9173 0.767998 14.936 0.895997 14.296 1.152C13.6987 1.408 13.272 1.856 13.016 2.496C12.8027 3.09333 12.696 4.032 12.696 5.312V18.88L24.728 6.592C25.9653 5.35467 26.584 4.224 26.584 3.2C26.584 2.432 26.2427 1.83466 25.56 1.408C24.8773 0.981331 23.9173 0.767998 22.68 0.767998C22.552 0.767998 22.488 0.639998 22.488 0.383999C22.488 0.128 22.552 0 22.68 0L25.688 0.0639992C27.5653 0.149331 29.3147 0.191998 30.936 0.191998C32.6853 0.191998 34.4987 0.149331 36.376 0.0639992L39.256 0C39.384 0 39.448 0.128 39.448 0.383999C39.448 0.639998 39.384 0.767998 39.256 0.767998C37.2933 0.767998 35.1387 1.344 32.792 2.496C30.4453 3.60533 28.312 5.09867 26.392 6.976L19.16 14.336L28.632 27.136C31.4053 31.104 33.4747 33.92 34.84 35.584C36.248 37.2053 37.3787 38.2293 38.232 38.656C39.0853 39.04 40.1733 39.232 41.496 39.232ZM53.8655 34.816C53.8655 36.096 53.9722 37.056 54.1855 37.696C54.3988 38.2933 54.7828 38.6987 55.3375 38.912C55.8922 39.1253 56.7882 39.232 58.0255 39.232C58.1108 39.232 58.1535 39.36 58.1535 39.616C58.1535 39.872 58.1108 40 58.0255 40C56.7028 40 55.6788 39.9787 54.9535 39.936L50.6015 39.872L46.4415 39.936C45.6735 39.9787 44.6068 40 43.2415 40C43.1562 40 43.1135 39.872 43.1135 39.616C43.1135 39.36 43.1562 39.232 43.2415 39.232C44.4788 39.232 45.3748 39.1253 45.9295 38.912C46.5268 38.6987 46.9322 38.2933 47.1455 37.696C47.3588 37.056 47.4655 36.096 47.4655 34.816V15.232C47.4655 13.952 47.3588 13.0133 47.1455 12.416C46.9322 11.8187 46.5268 11.4133 45.9295 11.2C45.3748 10.944 44.4788 10.816 43.2415 10.816C43.1562 10.816 43.1135 10.688 43.1135 10.432C43.1135 10.176 43.1562 10.048 43.2415 10.048L46.4415 10.112C48.1482 10.1973 49.5348 10.24 50.6015 10.24C51.7535 10.24 53.2255 10.1973 55.0175 10.112L58.0255 10.048C58.1108 10.048 58.1535 10.176 58.1535 10.432C58.1535 10.688 58.1108 10.816 58.0255 10.816C56.8308 10.816 55.9348 10.944 55.3375 11.2C54.7828 11.456 54.3988 11.904 54.1855 12.544C53.9722 13.1413 53.8655 14.08 53.8655 15.36V34.816ZM72.4085 34.56C72.4085 35.712 72.5152 36.5653 72.7285 37.12C72.9418 37.6747 73.3472 38.08 73.9445 38.336C74.5845 38.5493 75.5232 38.656 76.7605 38.656H77.4645C79.8965 38.656 82.1152 37.8667 84.1205 36.288C86.1258 34.7093 87.5978 32.576 88.5365 29.888C88.5792 29.8027 88.7072 29.7813 88.9205 29.824C89.1765 29.824 89.3045 29.8667 89.3045 29.952C89.0058 32.2133 88.8565 35.2427 88.8565 39.04C88.8565 39.3813 88.7712 39.6373 88.6005 39.808C88.4725 39.936 88.2165 40 87.8325 40H62.2325C62.1472 40 62.1045 39.872 62.1045 39.616C62.1045 39.36 62.1472 39.232 62.2325 39.232C63.3418 39.232 64.1525 39.1253 64.6645 38.912C65.1765 38.6987 65.5178 38.2933 65.6885 37.696C65.9018 37.056 66.0085 36.096 66.0085 34.816V15.232C66.0085 13.952 65.9018 13.0133 65.6885 12.416C65.5178 11.8187 65.1765 11.4133 64.6645 11.2C64.1525 10.944 63.3418 10.816 62.2325 10.816C62.1472 10.816 62.1045 10.688 62.1045 10.432C62.1045 10.176 62.1472 10.048 62.2325 10.048L65.3685 10.112C67.1605 10.1973 68.5472 10.24 69.5285 10.24C70.6378 10.24 72.0885 10.1973 73.8805 10.112L76.8245 10.048C76.9525 10.048 77.0165 10.176 77.0165 10.432C77.0165 10.688 76.9525 10.816 76.8245 10.816C75.5445 10.816 74.5845 10.944 73.9445 11.2C73.3472 11.4133 72.9418 11.84 72.7285 12.48C72.5152 13.0773 72.4085 14.016 72.4085 15.296V34.56ZM107.85 40.768C104.821 40.768 102.111 40.064 99.722 38.656C97.3327 37.2053 95.4767 35.2853 94.154 32.896C92.8313 30.464 92.17 27.84 92.17 25.024C92.17 21.7813 93.002 18.9653 94.666 16.576C96.3727 14.1867 98.5273 12.3733 101.13 11.136C103.775 9.89867 106.485 9.28 109.258 9.28C112.287 9.28 114.954 10.0267 117.258 11.52C119.605 12.9707 121.418 14.8907 122.698 17.28C123.978 19.6267 124.618 22.1013 124.618 24.704C124.618 27.5627 123.871 30.2293 122.378 32.704C120.885 35.136 118.858 37.0987 116.298 38.592C113.738 40.0427 110.922 40.768 107.85 40.768ZM109.322 39.296C111.711 39.296 113.631 38.1227 115.082 35.776C116.575 33.4293 117.322 30.1867 117.322 26.048C117.322 23.232 116.895 20.672 116.042 18.368C115.189 16.064 113.973 14.2507 112.394 12.928C110.858 11.5627 109.066 10.88 107.018 10.88C104.543 10.88 102.666 11.904 101.386 13.952C100.106 16 99.466 19.0293 99.466 23.04C99.466 26.0693 99.8927 28.8427 100.746 31.36C101.642 33.8347 102.837 35.776 104.33 37.184C105.823 38.592 107.487 39.296 109.322 39.296Z" fill="white"/>
</svg>
