<svg width="251" height="41" viewBox="0 0 251 41" fill="none" xmlns="http://www.w3.org/2000/svg">
<path d="M20.614 38.704C18.0767 38.704 15.7007 38.22 13.486 37.252C11.2713 36.284 9.328 34.942 7.656 33.226C5.984 31.4953 4.67133 29.4933 3.718 27.22C2.77933 24.932 2.31 22.4827 2.31 19.872C2.31 17.2613 2.77933 14.8193 3.718 12.546C4.67133 10.258 5.984 8.256 7.656 6.54C9.328 4.80933 11.2713 3.46 13.486 2.492C15.7007 1.524 18.0767 1.04 20.614 1.04C23.1513 1.04 25.5273 1.524 27.742 2.492C29.9567 3.46 31.9 4.80933 33.572 6.54C35.244 8.256 36.5493 10.258 37.488 12.546C38.4413 14.8193 38.918 17.2613 38.918 19.872C38.918 22.4827 38.4413 24.932 37.488 27.22C36.5493 29.4933 35.244 31.4953 33.572 33.226C31.9 34.942 29.9567 36.284 27.742 37.252C25.5273 38.22 23.1513 38.704 20.614 38.704ZM20.592 31.84C22.1467 31.84 23.5693 31.5467 24.86 30.96C26.1507 30.3733 27.2727 29.5447 28.226 28.474C29.1793 27.4033 29.92 26.142 30.448 24.69C30.976 23.2233 31.24 21.6173 31.24 19.872C31.24 18.1267 30.976 16.528 30.448 15.076C29.92 13.6093 29.1793 12.3407 28.226 11.27C27.2727 10.1993 26.1507 9.37066 24.86 8.784C23.5693 8.19733 22.1467 7.904 20.592 7.904C19.0667 7.904 17.6513 8.19733 16.346 8.784C15.0553 9.37066 13.9333 10.1993 12.98 11.27C12.0267 12.3407 11.286 13.6093 10.758 15.076C10.2447 16.528 9.988 18.1267 9.988 19.872C9.988 21.6173 10.2447 23.2233 10.758 24.69C11.286 26.142 12.0267 27.4033 12.98 28.474C13.9333 29.5447 15.0553 30.3733 16.346 30.96C17.6513 31.5467 19.0667 31.84 20.592 31.84ZM59.357 38.704C54.8104 38.704 51.371 37.5673 49.039 35.294C46.707 33.006 45.541 29.618 45.541 25.13V1.7H52.669V23.084C52.669 26.1493 53.1897 28.3567 54.231 29.706C55.287 31.0407 56.9957 31.708 59.357 31.708C61.7184 31.708 63.4197 31.0407 64.461 29.706C65.517 28.3567 66.045 26.1493 66.045 23.084V1.7H73.173V25.13C73.173 29.618 72.007 33.006 69.675 35.294C67.3577 37.5673 63.9184 38.704 59.357 38.704ZM85.4642 38V7.992H76.2682V1.7H101.788V7.992H92.5702V38H85.4642ZM107.559 38V1.7H114.687V31.752H127.799V38H107.559ZM129.711 38L144.297 1.7H150.919L165.483 38H157.805L154.725 29.728H140.469L137.389 38H129.711ZM142.911 23.48H152.305L147.597 11.314L142.911 23.48ZM170.852 38V1.7H177.98L193.622 26.12V1.7H200.75V38H193.622L177.98 13.58V38H170.852ZM210.641 38V1.7H220.607C223.189 1.7 225.587 2.162 227.801 3.086C230.016 4.01 231.952 5.30067 233.609 6.958C235.281 8.61533 236.579 10.544 237.503 12.744C238.442 14.944 238.911 17.32 238.911 19.872C238.911 22.4387 238.449 24.822 237.525 27.022C236.601 29.2073 235.303 31.1287 233.631 32.786C231.974 34.4287 230.031 35.712 227.801 36.636C225.587 37.5453 223.189 38 220.607 38H210.641ZM217.769 31.62H219.815C221.458 31.62 222.976 31.3267 224.369 30.74C225.763 30.1533 226.973 29.332 227.999 28.276C229.026 27.22 229.825 25.9807 230.397 24.558C230.969 23.1207 231.255 21.5513 231.255 19.85C231.255 18.1633 230.969 16.6087 230.397 15.186C229.825 13.7487 229.026 12.502 227.999 11.446C226.973 10.3753 225.763 9.54666 224.369 8.96C222.976 8.37333 221.458 8.08 219.815 8.08H217.769V31.62ZM245.397 38.24C244.245 38.24 243.349 37.8827 242.709 37.168C242.079 36.4533 241.765 35.5787 241.765 34.544C241.765 33.5093 242.122 32.688 242.837 32.08C243.551 31.472 244.399 31.168 245.381 31.168C246.362 31.168 247.205 31.472 247.909 32.08C248.623 32.6773 248.981 33.552 248.981 34.704C248.981 35.664 248.671 36.496 248.053 37.2C247.434 37.8933 246.549 38.24 245.397 38.24ZM245.301 31.984C244.565 31.984 243.941 32.2187 243.429 32.688C242.917 33.1467 242.661 33.8133 242.661 34.688C242.661 35.552 242.943 36.2187 243.509 36.688C244.074 37.1467 244.725 37.376 245.461 37.376C246.197 37.376 246.826 37.12 247.349 36.608C247.871 36.096 248.133 35.4347 248.133 34.624C248.133 33.8027 247.845 33.1573 247.269 32.688C246.703 32.2187 246.047 31.984 245.301 31.984Z" fill="white"/>
<path d="M13.486 37.252L13.8865 36.3357L13.8865 36.3357L13.486 37.252ZM7.656 33.226L6.9368 33.9208L6.93977 33.9239L7.656 33.226ZM3.718 27.22L2.7928 27.5996L2.79581 27.6067L3.718 27.22ZM3.718 12.546L2.79492 12.1614L2.79369 12.1643L3.718 12.546ZM7.656 6.54L8.37224 7.23787L8.37519 7.23481L7.656 6.54ZM33.572 6.54L32.8528 7.23482L32.8558 7.23786L33.572 6.54ZM37.488 12.546L36.5628 12.9256L36.5658 12.9327L37.488 12.546ZM37.488 27.22L36.5649 26.8354L36.5637 26.8384L37.488 27.22ZM33.572 33.226L34.2882 33.9239L34.2912 33.9208L33.572 33.226ZM27.742 37.252L27.3415 36.3357L27.3415 36.3357L27.742 37.252ZM24.86 30.96L24.4462 30.0496L24.4462 30.0496L24.86 30.96ZM28.226 28.474L28.9728 29.139L28.9728 29.139L28.226 28.474ZM30.448 24.69L31.3878 25.0317L31.3889 25.0287L30.448 24.69ZM30.448 15.076L29.5071 15.4147L29.5082 15.4177L30.448 15.076ZM28.226 11.27L28.9728 10.605L28.9728 10.605L28.226 11.27ZM24.86 8.784L24.4462 9.69437L24.4462 9.69437L24.86 8.784ZM16.346 8.784L15.9361 7.87188L15.9322 7.87363L16.346 8.784ZM12.98 11.27L13.7268 11.935L13.7268 11.935L12.98 11.27ZM10.758 15.076L9.8171 14.7373L9.81519 14.7427L10.758 15.076ZM10.758 24.69L9.81407 25.0204L9.81821 25.0317L10.758 24.69ZM16.346 30.96L15.9322 31.8704L15.9361 31.8721L16.346 30.96ZM20.614 37.704C18.2075 37.704 15.9686 37.2458 13.8865 36.3357L13.0855 38.1683C15.4327 39.1942 17.9458 39.704 20.614 39.704V37.704ZM13.8865 36.3357C11.7891 35.419 9.95327 34.1508 8.37223 32.5281L6.93977 33.9239C8.70273 35.7332 10.7535 37.149 13.0855 38.1683L13.8865 36.3357ZM8.37519 32.5312C6.7915 30.8919 5.54675 28.9951 4.64019 26.8333L2.79581 27.6067C3.79592 29.9916 5.1765 32.0987 6.93681 33.9208L8.37519 32.5312ZM4.64317 26.8404C3.75663 24.6795 3.31 22.3598 3.31 19.872H1.31C1.31 22.6055 1.80204 25.1845 2.79283 27.5996L4.64317 26.8404ZM3.31 19.872C3.31 17.3841 3.75664 15.0726 4.64231 12.9276L2.79369 12.1643C1.80203 14.566 1.31 17.1385 1.31 19.872H3.31ZM4.64108 12.9306C5.54756 10.7551 6.79138 8.86031 8.37223 7.23786L6.93977 5.84213C5.17662 7.65169 3.79511 9.76095 2.79492 12.1614L4.64108 12.9306ZM8.37519 7.23481C9.95604 5.5985 11.791 4.32422 13.8865 3.40829L13.0855 1.5757C10.7517 2.59577 8.69997 4.02016 6.93681 5.84519L8.37519 7.23481ZM13.8865 3.40829C15.9686 2.49824 18.2075 2.04 20.614 2.04V0.0399985C17.9458 0.0399985 15.4327 0.54976 13.0855 1.5757L13.8865 3.40829ZM20.614 2.04C23.0205 2.04 25.2594 2.49824 27.3415 3.40829L28.1425 1.5757C25.7953 0.54976 23.2822 0.0399985 20.614 0.0399985V2.04ZM27.3415 3.40829C29.437 4.32422 31.272 5.5985 32.8528 7.23481L34.2912 5.84519C32.528 4.02016 30.4763 2.59577 28.1425 1.5757L27.3415 3.40829ZM32.8558 7.23786C34.4355 8.85915 35.6712 10.7522 36.5628 12.9256L38.4132 12.1664C37.4275 9.76383 36.0525 7.65284 34.2882 5.84213L32.8558 7.23786ZM36.5658 12.9327C37.4648 15.0765 37.918 17.3862 37.918 19.872H39.918C39.918 17.1365 39.4179 14.5622 38.4102 12.1593L36.5658 12.9327ZM37.918 19.872C37.918 22.3578 37.4648 24.6757 36.5649 26.8354L38.4111 27.6046C39.4179 25.1883 39.918 22.6075 39.918 19.872H37.918ZM36.5637 26.8384C35.672 28.9979 34.4354 30.8931 32.8528 32.5312L34.2912 33.9208C36.0526 32.0976 37.4267 29.9887 38.4123 27.6016L36.5637 26.8384ZM32.8558 32.5281C31.2747 34.1508 29.4389 35.419 27.3415 36.3357L28.1425 38.1683C30.4745 37.149 32.5253 35.7332 34.2882 33.9239L32.8558 32.5281ZM27.3415 36.3357C25.2594 37.2458 23.0205 37.704 20.614 37.704V39.704C23.2822 39.704 25.7953 39.1942 28.1425 38.1683L27.3415 36.3357ZM20.592 32.84C22.2755 32.84 23.8411 32.5216 25.2738 31.8704L24.4462 30.0496C23.2976 30.5717 22.0178 30.84 20.592 30.84V32.84ZM25.2738 31.8704C26.6928 31.2254 27.9279 30.3126 28.9728 29.139L27.4792 27.809C26.6175 28.7768 25.6085 29.5213 24.4462 30.0496L25.2738 31.8704ZM28.9728 29.139C30.0167 27.9666 30.8199 26.5934 31.3878 25.0317L29.5082 24.3483C29.0201 25.6906 28.3419 26.84 27.4792 27.809L28.9728 29.139ZM31.3889 25.0287C31.9604 23.4412 32.24 21.7191 32.24 19.872H30.24C30.24 21.5156 29.9916 23.0055 29.5071 24.3513L31.3889 25.0287ZM32.24 19.872C32.24 18.0251 31.9604 16.309 31.3878 14.7343L29.5082 15.4177C29.9916 16.747 30.24 18.2283 30.24 19.872H32.24ZM31.3889 14.7373C30.8214 13.161 30.0183 11.7791 28.9728 10.605L27.4792 11.935C28.3404 12.9023 29.0186 14.0576 29.5071 15.4147L31.3889 14.7373ZM28.9728 10.605C27.9279 9.43142 26.6928 8.51864 25.2738 7.87363L24.4462 9.69437C25.6085 10.2227 26.6175 10.9672 27.4792 11.935L28.9728 10.605ZM25.2738 7.87363C23.8411 7.22239 22.2755 6.904 20.592 6.904V8.904C22.0178 8.904 23.2976 9.17227 24.4462 9.69437L25.2738 7.87363ZM20.592 6.904C18.9348 6.904 17.3787 7.22353 15.9361 7.87189L16.7559 9.69611C17.924 9.17114 19.1985 8.904 20.592 8.904V6.904ZM15.9322 7.87363C14.5132 8.51864 13.2781 9.43142 12.2332 10.605L13.7268 11.935C14.5885 10.9672 15.5975 10.2227 16.7598 9.69437L15.9322 7.87363ZM12.2332 10.605C11.1877 11.7791 10.3846 13.161 9.81711 14.7373L11.6989 15.4147C12.1874 14.0576 12.8656 12.9023 13.7268 11.935L12.2332 10.605ZM9.81519 14.7427C9.25932 16.315 8.988 18.0281 8.988 19.872H10.988C10.988 18.2253 11.23 16.741 11.7008 15.4093L9.81519 14.7427ZM8.988 19.872C8.988 21.7161 9.25937 23.4353 9.81414 25.0203L11.7019 24.3596C11.23 23.0114 10.988 21.5186 10.988 19.872H8.988ZM9.81821 25.0317C10.3861 26.5934 11.1893 27.9666 12.2332 29.139L13.7268 27.809C12.8641 26.84 12.1859 25.6906 11.6978 24.3483L9.81821 25.0317ZM12.2332 29.139C13.2781 30.3126 14.5132 31.2254 15.9322 31.8704L16.7598 30.0496C15.5975 29.5213 14.5885 28.7768 13.7268 27.809L12.2332 29.139ZM15.9361 31.8721C17.3787 32.5205 18.9348 32.84 20.592 32.84V30.84C19.1985 30.84 17.924 30.5729 16.7559 30.0479L15.9361 31.8721ZM49.039 35.294L48.3387 36.0078L48.341 36.0101L49.039 35.294ZM45.541 1.7V0.699998H44.541V1.7H45.541ZM52.669 1.7H53.669V0.699998H52.669V1.7ZM54.231 29.706L53.4393 30.317L53.4468 30.3265L54.231 29.706ZM64.461 29.706L63.6735 29.0897L63.6726 29.0909L64.461 29.706ZM66.045 1.7V0.699998H65.045V1.7H66.045ZM73.173 1.7H74.173V0.699998H73.173V1.7ZM69.675 35.294L70.3753 36.0079L70.3754 36.0078L69.675 35.294ZM59.357 37.704C54.9666 37.704 51.8189 36.6074 49.7371 34.5779L48.341 36.0101C50.9232 38.5273 54.6541 39.704 59.357 39.704V37.704ZM49.7394 34.5802C47.6618 32.5418 46.541 29.4524 46.541 25.13H44.541C44.541 29.7836 45.7523 33.4702 48.3387 36.0078L49.7394 34.5802ZM46.541 25.13V1.7H44.541V25.13H46.541ZM45.541 2.7H52.669V0.699998H45.541V2.7ZM51.669 1.7V23.084H53.669V1.7H51.669ZM51.669 23.084C51.669 26.2146 52.1915 28.7 53.4394 30.317L55.0227 29.095C54.1879 28.0134 53.669 26.0841 53.669 23.084H51.669ZM53.4468 30.3265C54.7586 31.9844 56.8154 32.708 59.357 32.708V30.708C57.176 30.708 55.8155 30.0969 55.0153 29.0855L53.4468 30.3265ZM59.357 32.708C61.8976 32.708 63.9514 31.9848 65.2495 30.3211L63.6726 29.0909C62.888 30.0965 61.5391 30.708 59.357 30.708V32.708ZM65.2485 30.3223C66.5147 28.7044 67.045 26.2165 67.045 23.084H65.045C65.045 26.0822 64.5194 28.0089 63.6735 29.0897L65.2485 30.3223ZM67.045 23.084V1.7H65.045V23.084H67.045ZM66.045 2.7H73.173V0.699998H66.045V2.7ZM72.173 1.7V25.13H74.173V1.7H72.173ZM72.173 25.13C72.173 29.4524 71.0523 32.5418 68.9747 34.5802L70.3754 36.0078C72.9618 33.4702 74.173 29.7836 74.173 25.13H72.173ZM68.9747 34.5801C66.909 36.6066 63.7637 37.704 59.357 37.704V39.704C64.073 39.704 67.8064 38.528 70.3753 36.0079L68.9747 34.5801ZM85.4642 38H84.4642V39H85.4642V38ZM85.4642 7.992H86.4642V6.992H85.4642V7.992ZM76.2682 7.992H75.2682V8.992H76.2682V7.992ZM76.2682 1.7V0.699998H75.2682V1.7H76.2682ZM101.788 1.7H102.788V0.699998H101.788V1.7ZM101.788 7.992V8.992H102.788V7.992H101.788ZM92.5702 7.992V6.992H91.5702V7.992H92.5702ZM92.5702 38V39H93.5702V38H92.5702ZM86.4642 38V7.992H84.4642V38H86.4642ZM85.4642 6.992H76.2682V8.992H85.4642V6.992ZM77.2682 7.992V1.7H75.2682V7.992H77.2682ZM76.2682 2.7H101.788V0.699998H76.2682V2.7ZM100.788 1.7V7.992H102.788V1.7H100.788ZM101.788 6.992H92.5702V8.992H101.788V6.992ZM91.5702 7.992V38H93.5702V7.992H91.5702ZM92.5702 37H85.4642V39H92.5702V37ZM107.559 38H106.559V39H107.559V38ZM107.559 1.7V0.699998H106.559V1.7H107.559ZM114.687 1.7H115.687V0.699998H114.687V1.7ZM114.687 31.752H113.687V32.752H114.687V31.752ZM127.799 31.752H128.799V30.752H127.799V31.752ZM127.799 38V39H128.799V38H127.799ZM108.559 38V1.7H106.559V38H108.559ZM107.559 2.7H114.687V0.699998H107.559V2.7ZM113.687 1.7V31.752H115.687V1.7H113.687ZM114.687 32.752H127.799V30.752H114.687V32.752ZM126.799 31.752V38H128.799V31.752H126.799ZM127.799 37H107.559V39H127.799V37ZM129.711 38L128.783 37.6272L128.231 39H129.711V38ZM144.297 1.7V0.699998H143.621L143.369 1.32715L144.297 1.7ZM150.919 1.7L151.847 1.32764L151.595 0.699998H150.919V1.7ZM165.483 38V39H166.962L166.411 37.6276L165.483 38ZM157.805 38L156.868 38.3489L157.11 39H157.805V38ZM154.725 29.728L155.662 29.3791L155.42 28.728H154.725V29.728ZM140.469 29.728V28.728H139.774L139.532 29.3791L140.469 29.728ZM137.389 38V39H138.084L138.326 38.3489L137.389 38ZM142.911 23.48L141.978 23.1206L141.454 24.48H142.911V23.48ZM152.305 23.48V24.48H153.764L153.238 23.1191L152.305 23.48ZM147.597 11.314L148.53 10.9531L147.595 8.5375L146.664 10.9546L147.597 11.314ZM130.639 38.3728L145.225 2.07284L143.369 1.32715L128.783 37.6272L130.639 38.3728ZM144.297 2.7H150.919V0.699998H144.297V2.7ZM149.991 2.07236L164.555 38.3724L166.411 37.6276L151.847 1.32764L149.991 2.07236ZM165.483 37H157.805V39H165.483V37ZM158.742 37.6511L155.662 29.3791L153.788 30.0769L156.868 38.3489L158.742 37.6511ZM154.725 28.728H140.469V30.728H154.725V28.728ZM139.532 29.3791L136.452 37.6511L138.326 38.3489L141.406 30.0769L139.532 29.3791ZM137.389 37H129.711V39H137.389V37ZM142.911 24.48H152.305V22.48H142.911V24.48ZM153.238 23.1191L148.53 10.9531L146.664 11.6749L151.372 23.8409L153.238 23.1191ZM146.664 10.9546L141.978 23.1206L143.844 23.8394L148.53 11.6734L146.664 10.9546ZM170.852 38H169.852V39H170.852V38ZM170.852 1.7V0.699998H169.852V1.7H170.852ZM177.98 1.7L178.822 1.16062L178.527 0.699998H177.98V1.7ZM193.622 26.12L192.78 26.6594L194.622 29.5352V26.12H193.622ZM193.622 1.7V0.699998H192.622V1.7H193.622ZM200.75 1.7H201.75V0.699998H200.75V1.7ZM200.75 38V39H201.75V38H200.75ZM193.622 38L192.78 38.5394L193.075 39H193.622V38ZM177.98 13.58L178.822 13.0406L176.98 10.1648V13.58H177.98ZM177.98 38V39H178.98V38H177.98ZM171.852 38V1.7H169.852V38H171.852ZM170.852 2.7H177.98V0.699998H170.852V2.7ZM177.138 2.23937L192.78 26.6594L194.464 25.5806L178.822 1.16062L177.138 2.23937ZM194.622 26.12V1.7H192.622V26.12H194.622ZM193.622 2.7H200.75V0.699998H193.622V2.7ZM199.75 1.7V38H201.75V1.7H199.75ZM200.75 37H193.622V39H200.75V37ZM194.464 37.4606L178.822 13.0406L177.138 14.1194L192.78 38.5394L194.464 37.4606ZM176.98 13.58V38H178.98V13.58H176.98ZM177.98 37H170.852V39H177.98V37ZM210.641 38H209.641V39H210.641V38ZM210.641 1.7V0.699998H209.641V1.7H210.641ZM227.801 3.086L228.186 2.1631L228.186 2.1631L227.801 3.086ZM233.609 6.958L232.902 7.66511L232.905 7.66821L233.609 6.958ZM237.503 12.744L236.581 13.1312L236.584 13.1364L237.503 12.744ZM237.525 27.022L238.446 27.4114L238.447 27.4092L237.525 27.022ZM233.631 32.786L234.335 33.4962L234.335 33.4962L233.631 32.786ZM227.801 36.636L228.181 37.5611L228.184 37.5598L227.801 36.636ZM217.769 31.62H216.769V32.62H217.769V31.62ZM227.999 28.276L227.282 27.5789L227.282 27.5789L227.999 28.276ZM230.397 24.558L231.325 24.931L231.327 24.9278L230.397 24.558ZM230.397 15.186L229.468 15.5558L229.47 15.559L230.397 15.186ZM227.999 11.446L227.278 12.1381L227.282 12.1431L227.999 11.446ZM217.769 8.08V7.08H216.769V8.08H217.769ZM211.641 38V1.7H209.641V38H211.641ZM210.641 2.7H220.607V0.699998H210.641V2.7ZM220.607 2.7C223.067 2.7 225.333 3.13954 227.416 4.00889L228.186 2.1631C225.841 1.18445 223.311 0.699998 220.607 0.699998V2.7ZM227.416 4.00889C229.514 4.88389 231.339 6.10224 232.902 7.66511L234.317 6.25089C232.565 4.49909 230.519 3.13611 228.186 2.1631L227.416 4.00889ZM232.905 7.66821C234.483 9.23195 235.708 11.0505 236.581 13.1312L238.425 12.3568C237.451 10.0375 236.08 7.99872 234.313 6.24778L232.905 7.66821ZM236.584 13.1364C237.466 15.2042 237.911 17.4457 237.911 19.872H239.911C239.911 17.1943 239.418 14.6838 238.423 12.3516L236.584 13.1364ZM237.911 19.872C237.911 22.3159 237.472 24.5664 236.603 26.6348L238.447 27.4092C239.427 25.0776 239.911 22.5615 239.911 19.872H237.911ZM236.604 26.6326C235.731 28.6988 234.506 30.5109 232.927 32.0758L234.335 33.4962C236.101 31.7464 237.472 29.7159 238.446 27.4114L236.604 26.6326ZM232.927 32.0758C231.365 33.624 229.532 34.8362 227.419 35.7122L228.184 37.5598C230.529 36.5878 232.583 35.2334 234.335 33.4962L232.927 32.0758ZM227.422 35.7109C225.337 36.567 223.069 37 220.607 37V39C223.309 39 225.837 38.5236 228.181 37.5611L227.422 35.7109ZM220.607 37H210.641V39H220.607V37ZM217.769 32.62H219.815V30.62H217.769V32.62ZM219.815 32.62C221.58 32.62 223.231 32.3044 224.757 31.6616L223.981 29.8184C222.721 30.349 221.336 30.62 219.815 30.62V32.62ZM224.757 31.6616C226.271 31.0243 227.594 30.1278 228.716 28.9731L227.282 27.5789C226.352 28.5362 225.254 29.2823 223.981 29.8184L224.757 31.6616ZM228.716 28.9731C229.837 27.82 230.707 26.4694 231.325 24.931L229.47 24.185C228.944 25.492 228.215 26.62 227.282 27.5789L228.716 28.9731ZM231.327 24.9278C231.95 23.3616 232.255 21.6653 232.255 19.85H230.255C230.255 21.4374 229.989 22.8798 229.468 24.1882L231.327 24.9278ZM232.255 19.85C232.255 18.0483 231.949 16.3655 231.325 14.813L229.47 15.559C229.989 16.8518 230.255 18.2783 230.255 19.85H232.255ZM231.327 14.8162C230.708 13.2632 229.839 11.9037 228.716 10.7489L227.282 12.1431C228.213 13.1003 228.942 14.2342 229.468 15.5558L231.327 14.8162ZM228.721 10.7539C227.598 9.58282 226.274 8.67693 224.757 8.03836L223.981 9.88163C225.251 10.4164 226.347 11.1678 227.278 12.1381L228.721 10.7539ZM224.757 8.03836C223.231 7.39565 221.58 7.08 219.815 7.08V9.08C221.336 9.08 222.721 9.35102 223.981 9.88163L224.757 8.03836ZM219.815 7.08H217.769V9.08H219.815V7.08ZM216.769 8.08V31.62H218.769V8.08H216.769ZM242.709 37.168L241.958 37.8289L241.964 37.8351L242.709 37.168ZM242.837 32.08L243.485 32.8417L243.485 32.8417L242.837 32.08ZM247.909 32.08L247.255 32.8368L247.261 32.8421L247.267 32.8473L247.909 32.08ZM248.053 37.2L248.799 37.8658L248.804 37.8601L248.053 37.2ZM243.429 32.688L244.096 33.4329L244.104 33.4252L243.429 32.688ZM243.509 36.688L242.87 37.4575L242.879 37.4646L243.509 36.688ZM247.349 36.608L246.649 35.8936L246.649 35.8936L247.349 36.608ZM247.269 32.688L246.63 33.4574L246.637 33.4632L247.269 32.688ZM245.397 37.24C244.467 37.24 243.866 36.9614 243.454 36.5009L241.964 37.8351C242.831 38.8039 244.022 39.24 245.397 39.24V37.24ZM243.459 36.5071C243.005 35.9915 242.765 35.3581 242.765 34.544H240.765C240.765 35.7992 241.154 36.9152 241.958 37.8289L243.459 36.5071ZM242.765 34.544C242.765 33.7686 243.018 33.2387 243.485 32.8417L242.189 31.3183C241.226 32.1373 240.765 33.2501 240.765 34.544H242.765ZM243.485 32.8417C244.01 32.395 244.625 32.168 245.381 32.168V30.168C244.174 30.168 243.093 30.549 242.189 31.3183L243.485 32.8417ZM245.381 32.168C246.136 32.168 246.743 32.3948 247.255 32.8368L248.562 31.3232C247.666 30.5492 246.588 30.168 245.381 30.168V32.168ZM247.267 32.8473C247.702 33.2104 247.981 33.7717 247.981 34.704H249.981C249.981 33.3323 249.545 32.1442 248.55 31.3127L247.267 32.8473ZM247.981 34.704C247.981 35.4275 247.756 36.0232 247.301 36.5399L248.804 37.8601C249.587 36.9688 249.981 35.9005 249.981 34.704H247.981ZM247.306 36.5342C246.922 36.9655 246.337 37.24 245.397 37.24V39.24C246.76 39.24 247.946 38.8212 248.799 37.8658L247.306 36.5342ZM245.301 30.984C244.331 30.984 243.461 31.3017 242.753 31.9508L244.104 33.4252C244.42 33.1356 244.798 32.984 245.301 32.984V30.984ZM242.761 31.9432C241.983 32.6405 241.661 33.6118 241.661 34.688H243.661C243.661 34.0148 243.85 33.6528 244.096 33.4328L242.761 31.9432ZM241.661 34.688C241.661 35.7913 242.034 36.7638 242.87 37.4574L244.147 35.9186C243.852 35.6735 243.661 35.3127 243.661 34.688H241.661ZM242.879 37.4646C243.624 38.0695 244.498 38.376 245.461 38.376V36.376C244.951 36.376 244.524 36.2238 244.139 35.9114L242.879 37.4646ZM245.461 38.376C246.457 38.376 247.338 38.0187 248.048 37.3224L246.649 35.8936C246.314 36.2213 245.937 36.376 245.461 36.376V38.376ZM248.048 37.3224C248.785 36.601 249.133 35.6715 249.133 34.624H247.133C247.133 35.1978 246.958 35.591 246.649 35.8936L248.048 37.3224ZM249.133 34.624C249.133 33.538 248.736 32.5936 247.9 31.9128L246.637 33.4632C246.953 33.721 247.133 34.0673 247.133 34.624H249.133ZM247.907 31.9186C247.159 31.2976 246.276 30.984 245.301 30.984V32.984C245.818 32.984 246.247 33.1397 246.63 33.4574L247.907 31.9186Z" fill="white"/>
</svg>
